<svg width="664" height="664" viewBox="0 0 664 664" fill="none" xmlns="http://www.w3.org/2000/svg">
<path d="M54.776 487.088C58.9307 487.088 62.2653 487.853 64.78 489.384C67.404 490.915 69.4813 493.593 71.012 497.42L104.632 584.012C106.163 587.729 106.163 590.517 104.632 592.376C103.211 594.125 100.532 595 96.596 595C93.0973 595 90.2 594.672 87.904 594.016C85.7173 593.36 83.968 591.337 82.656 587.948L77.408 574.828H32.144L27.06 588.112C25.8573 591.283 24.0533 593.251 21.648 594.016C19.352 594.672 16.4547 595 12.956 595C9.02 595 6.28667 594.125 4.756 592.376C3.33467 590.517 3.33467 587.729 4.756 584.012L38.54 497.42C39.9613 493.703 41.984 491.079 44.608 489.548C47.232 487.908 50.6213 487.088 54.776 487.088ZM39.196 556.46H70.52L54.776 512.836L39.196 556.46Z" fill="#0B2F15"/>
<path d="M219.737 545.472C219.518 553.235 218.097 560.287 215.473 566.628C212.958 572.969 209.296 578.436 204.485 583.028C199.784 587.511 194.044 591.009 187.265 593.524C180.596 595.929 173.052 597.132 164.633 597.132C156.433 597.132 148.834 595.711 141.837 592.868C134.949 589.916 128.936 585.925 123.797 580.896C118.768 575.757 114.832 569.799 111.989 563.02C109.146 556.241 107.725 548.916 107.725 541.044C107.725 533.172 109.146 525.847 111.989 519.068C114.941 512.18 118.932 506.221 123.961 501.192C129.1 496.053 135.168 492.008 142.165 489.056C149.162 486.104 156.761 484.628 164.961 484.628C173.161 484.628 180.76 486.213 187.757 489.384C194.864 492.555 201.041 496.928 206.289 502.504C208.804 505.019 209.788 507.533 209.241 510.048C208.804 512.563 207 514.749 203.829 516.608C201.642 518.029 199.51 518.74 197.433 518.74C195.902 518.74 194.372 518.357 192.841 517.592C191.31 516.717 189.725 515.679 188.085 514.476C185.133 511.633 181.634 509.392 177.589 507.752C173.653 506.112 169.334 505.292 164.633 505.292C159.713 505.292 155.121 506.221 150.857 508.08C146.593 509.829 142.821 512.289 139.541 515.46C136.37 518.631 133.856 522.403 131.997 526.776C130.248 531.149 129.373 535.905 129.373 541.044C129.373 546.073 130.302 550.775 132.161 555.148C134.02 559.521 136.534 563.293 139.705 566.464C142.876 569.525 146.593 571.985 150.857 573.844C155.121 575.593 159.713 576.468 164.633 576.468C169.553 576.468 173.817 575.976 177.425 574.992C181.142 573.899 184.258 572.423 186.773 570.564C189.288 568.596 191.256 566.355 192.677 563.84C194.208 561.216 195.246 558.373 195.793 555.312H174.309C168.186 555.312 165.125 552.251 165.125 546.128C165.125 540.005 168.186 536.944 174.309 536.944H214.325C216.949 536.944 218.48 537.764 218.917 539.404C219.464 540.935 219.737 542.957 219.737 545.472Z" fill="#0B2F15"/>
<path d="M233.407 497.092C233.407 493.593 234.5 491.079 236.687 489.548C238.873 487.908 241.552 487.088 244.723 487.088H281.787C288.019 487.088 293.54 487.963 298.351 489.712C303.161 491.461 307.207 493.867 310.487 496.928C313.767 499.88 316.227 503.488 317.867 507.752C319.616 511.907 320.491 516.444 320.491 521.364C320.491 528.361 318.468 534.484 314.423 539.732C310.377 544.98 305.02 548.861 298.351 551.376L318.031 585.488C319.889 588.44 319.999 590.791 318.359 592.54C316.719 594.18 314.149 595 310.651 595C306.277 595 303.052 594.453 300.975 593.36C298.897 592.267 297.093 590.299 295.563 587.456L277.195 554.656H255.055V584.176C255.055 591.392 251.447 595 244.231 595C237.015 595 233.407 591.392 233.407 584.176V497.092ZM255.055 507.424V535.632H281.787C287.035 535.632 291.135 534.539 294.087 532.352C297.148 530.056 298.679 526.448 298.679 521.528C298.679 516.608 297.148 513.055 294.087 510.868C291.135 508.572 287.035 507.424 281.787 507.424H255.055Z" fill="#0B2F15"/>
<path d="M346.422 595C342.814 595 340.026 594.125 338.058 592.376C336.09 590.517 335.106 587.784 335.106 584.176V497.912C335.106 494.304 336.09 491.625 338.058 489.876C340.026 488.017 342.814 487.088 346.422 487.088H403.494C410.163 487.088 413.498 490.423 413.498 497.092C413.498 503.761 410.163 507.096 403.494 507.096H356.754V530.548H402.182C408.633 530.548 411.858 533.773 411.858 540.224C411.858 546.784 408.633 550.064 402.182 550.064H356.754V574.992H404.314C410.983 574.992 414.318 578.327 414.318 584.996C414.318 591.665 410.983 595 404.314 595H346.422Z" fill="#0B2F15"/>
<path d="M536.206 545.472C535.987 553.235 534.566 560.287 531.942 566.628C529.427 572.969 525.764 578.436 520.954 583.028C516.252 587.511 510.512 591.009 503.734 593.524C497.064 595.929 489.52 597.132 481.102 597.132C472.902 597.132 465.303 595.711 458.306 592.868C451.418 589.916 445.404 585.925 440.266 580.896C435.236 575.757 431.3 569.799 428.458 563.02C425.615 556.241 424.194 548.916 424.194 541.044C424.194 533.172 425.615 525.847 428.458 519.068C431.41 512.18 435.4 506.221 440.43 501.192C445.568 496.053 451.636 492.008 458.634 489.056C465.631 486.104 473.23 484.628 481.43 484.628C489.63 484.628 497.228 486.213 504.226 489.384C511.332 492.555 517.51 496.928 522.758 502.504C525.272 505.019 526.256 507.533 525.71 510.048C525.272 512.563 523.468 514.749 520.298 516.608C518.111 518.029 515.979 518.74 513.902 518.74C512.371 518.74 510.84 518.357 509.31 517.592C507.779 516.717 506.194 515.679 504.554 514.476C501.602 511.633 498.103 509.392 494.058 507.752C490.122 506.112 485.803 505.292 481.102 505.292C476.182 505.292 471.59 506.221 467.326 508.08C463.062 509.829 459.29 512.289 456.01 515.46C452.839 518.631 450.324 522.403 448.466 526.776C446.716 531.149 445.842 535.905 445.842 541.044C445.842 546.073 446.771 550.775 448.63 555.148C450.488 559.521 453.003 563.293 456.174 566.464C459.344 569.525 463.062 571.985 467.326 573.844C471.59 575.593 476.182 576.468 481.102 576.468C486.022 576.468 490.286 575.976 493.894 574.992C497.611 573.899 500.727 572.423 503.242 570.564C505.756 568.596 507.724 566.355 509.146 563.84C510.676 561.216 511.715 558.373 512.262 555.312H490.778C484.655 555.312 481.594 552.251 481.594 546.128C481.594 540.005 484.655 536.944 490.778 536.944H530.794C533.418 536.944 534.948 537.764 535.386 539.404C535.932 540.935 536.206 542.957 536.206 545.472Z" fill="#0B2F15"/>
<path d="M544.955 541.208C544.955 533.445 546.377 526.12 549.219 519.232C552.062 512.344 555.998 506.385 561.027 501.356C566.166 496.217 572.179 492.172 579.067 489.22C586.065 486.268 593.663 484.792 601.863 484.792C610.063 484.792 617.607 486.268 624.495 489.22C631.383 492.172 637.342 496.217 642.371 501.356C647.51 506.385 651.501 512.344 654.343 519.232C657.186 526.12 658.607 533.445 658.607 541.208C658.607 548.861 657.186 556.132 654.343 563.02C651.501 569.799 647.51 575.757 642.371 580.896C637.342 585.925 631.383 589.916 624.495 592.868C617.607 595.82 610.063 597.296 601.863 597.296C593.663 597.296 586.065 595.82 579.067 592.868C572.179 589.916 566.166 585.925 561.027 580.896C555.998 575.757 552.062 569.799 549.219 563.02C546.377 556.132 544.955 548.861 544.955 541.208ZM566.603 541.044C566.603 546.073 567.478 550.775 569.227 555.148C571.086 559.412 573.546 563.184 576.607 566.464C579.778 569.635 583.495 572.149 587.759 574.008C592.133 575.757 596.834 576.632 601.863 576.632C606.893 576.632 611.539 575.757 615.803 574.008C620.067 572.149 623.73 569.635 626.791 566.464C629.962 563.184 632.422 559.412 634.171 555.148C636.03 550.775 636.959 546.073 636.959 541.044C636.959 536.015 636.03 531.368 634.171 527.104C632.422 522.731 629.962 518.959 626.791 515.788C623.73 512.508 620.067 509.993 615.803 508.244C611.539 506.385 606.893 505.456 601.863 505.456C596.834 505.456 592.133 506.385 587.759 508.244C583.495 509.993 579.778 512.508 576.607 515.788C573.546 518.959 571.086 522.731 569.227 527.104C567.478 531.368 566.603 536.015 566.603 541.044Z" fill="#0B2F15"/>
<path d="M300.007 288.05C289.28 286.682 284.591 274.401 293.111 268.292C305.221 259.605 318.972 247.366 332.694 241.633C346.788 235.743 362.22 240.691 374.645 248.12C380.562 251.659 395.177 240.299 400.755 237.609C414.993 228.902 427.815 221.954 443.288 215.696C474.636 203.018 519.014 201.667 533.846 238.774C544.989 267.907 536.568 303.818 523.826 331.464C516.058 348.294 505.914 363.93 493.698 377.899C491.723 380.127 489.143 382.618 487.023 384.768C463.545 408.453 435.133 426.721 403.793 438.286C372.221 449.889 333.92 453.875 300.647 447.711C298.121 447.244 290.358 446.169 288.378 445.26L288.24 444.882C288.24 444.88 298.299 443.353 299.699 443.074C310.411 441.041 320.975 438.294 331.319 434.854C354.907 426.947 377.225 415.692 397.579 401.437C423.699 383.437 449.993 357.701 462.966 328.397C467.262 318.696 472.164 302.099 465.471 292.667C463.096 289.377 459.494 287.174 455.473 286.553C441.896 284.392 426.46 298.846 416.614 306.967C401.446 319.481 405.033 322.62 389.807 308.137L365.583 285.197C349.735 270.12 344.87 260.776 324.221 275.991L324 276.157L323.653 276.331C315.27 280.625 310.097 288.545 300.007 288.05Z" fill="url(#paint0_linear_2_12)"/>
<path d="M313.926 46.0581C317.808 45.5061 329.176 45.9993 333.19 46.281C355.389 47.8382 375.675 56.9961 391.323 72.7916C393.865 75.3547 396.806 78.9257 399.211 81.7575C398.303 81.6356 397.39 81.5263 396.477 81.43C388.47 80.5933 384.823 80.8997 377.237 81.2693C351.686 82.5289 331.854 93.6356 316.924 114.106C299.924 137.414 292.327 175.705 269.866 193.786C266.549 196.414 263.009 198.869 258.886 200.01C254.491 198.952 248.333 196.242 243.333 194.815C226.438 189.987 208.734 188.633 191.296 190.832C191.248 182.428 191.341 173.89 192.347 165.482C195.496 139.169 204.382 114.857 220.542 93.7392C238.492 70.2825 263.129 55.256 291.944 49.0774C300.272 47.2918 305.708 47.081 313.926 46.0581ZM206.906 180.234C208.153 179.429 211.861 172.83 212.854 171.259C216.521 165.456 220.312 159.731 224.226 154.09C235.343 138.29 253.103 118.973 267.858 106.609C279.245 97.0334 291.795 88.9193 305.213 82.4571C307.817 81.1826 310.494 79.9491 313.118 78.7215C315.002 77.8406 322.473 76.0262 322.82 74.4691C271.831 85.1892 226.825 125.842 208.795 174.152C208.21 175.719 206.786 178.677 206.906 180.234Z" fill="#4D9822"/>
<path d="M262.905 289.734C261.969 287.959 259.159 284.035 257.897 282.366C250.104 272.057 238.749 262.302 225.467 260.591C218.532 259.694 211.522 261.568 205.973 265.806C199.038 271.198 194.676 280.866 193.912 289.64C191.257 320.119 209.335 347.797 231.072 368.228C258.877 394.362 298.538 410.042 336.906 410.839C338.401 410.869 342.301 410.616 343.47 410.755L343.484 411.247C341.972 413.079 329.93 418.171 327.158 419.335C311.961 425.72 296.225 429.557 279.811 431.102C273.803 431.666 267.167 432.237 261.137 431.427C253.026 430.339 243.911 427.496 236.38 424.272C193.367 405.863 157.104 368.765 139.232 325.781C130.284 304.26 125.118 279.974 130.428 257.042C131.411 252.797 132.676 248.422 134.276 244.408C140.977 227.59 154.877 213.564 171.757 206.703C202.858 194.063 239.899 201.644 268.225 217.906C274.744 221.649 279.929 224.486 286.081 228.971C289.447 231.425 294.665 235.219 298.113 237.269C300.389 238.623 306.947 240.173 309.88 241.39C309.908 243.81 291.001 256.583 288.154 258.957C282.682 263.521 279.978 267.182 278.377 274.305C275.776 275.251 267.994 282.8 265.932 285.393C264.634 287.022 263.948 288.331 262.905 289.734Z" fill="url(#paint1_linear_2_12)"/>
<path d="M278.377 274.305C278.32 281.246 279.315 285.753 284.347 291.095C286.674 293.566 291.073 296.238 294.407 297.026C295.339 297.51 298.444 298.133 299.497 298.225C308.512 299 314.75 295.076 321.812 290.201C323.977 288.706 326.532 287.251 328.539 285.627C332.699 283.004 338.007 278.045 343.048 279.108C344.284 279.368 346.159 279.915 347.074 280.722C350.232 283.511 353.393 286.595 356.456 289.481L375.132 307.021C382.286 313.779 389.884 320.345 396.577 327.532C397.776 330.105 398.066 332.559 397.372 335.228C395.686 341.728 386.631 345.127 381.577 340.526C373.74 333.388 366.217 325.419 358.371 318.239C357.349 317.303 356.553 316.406 355.727 315.299C354.761 316.039 353.707 316.806 352.803 317.608C355.334 321.751 360.12 325.622 363.635 328.988C367.833 332.755 372.166 337.471 376.456 341.05C384.421 347.69 376.254 357.411 368.147 355.464C363.166 354.267 356.693 346.749 352.746 343.272C349.038 340.007 344.901 336.132 341.467 332.626C340.628 333.371 339.658 334.076 339.19 335.052C339.407 338.375 357.264 351.758 359.082 356.795C360.088 359.579 359.302 362.258 357.361 364.406C355.535 366.406 352.99 367.605 350.28 367.744C343.954 368.045 338.931 361.724 334.373 357.421C333.213 356.34 332.075 355.238 330.958 354.113C331.263 356.35 331.519 357.773 330.833 359.978C329.449 364.421 326.713 368.084 322.022 368.656C318.81 369.05 314.845 367.546 312.291 365.566C310.204 363.954 308.355 361.334 308.053 358.722C307.723 355.878 309.082 353.261 310.925 351.065C311.69 350.154 313.136 348.917 313.32 347.911C312.975 347.385 313.204 347.566 312.57 347.425C311.749 347.755 310.317 348.994 309.724 349.64C306.171 353.502 302.101 355.208 297.001 353.03C291.57 350.71 285.841 344.991 288.621 338.549C289.546 336.331 294.236 332.353 294.442 330.488C293.82 329.824 294.19 330.013 293.301 329.892C291.413 330.502 289.903 332.363 288.367 333.654C280.305 340.429 266.915 331.819 271.621 321.823C272.855 319.203 277.834 315.753 277.769 314.032L277.455 313.618C276.09 313.642 275.17 315.473 273.937 315.994C261.461 321.252 254.052 305.909 260.902 296.454C263.834 292.409 264.166 294.281 262.905 289.734C263.948 288.331 264.634 287.022 265.932 285.393C267.994 282.8 275.776 275.251 278.377 274.305Z" fill="url(#paint2_linear_2_12)"/>
<path d="M412.875 123.342C403.534 123.081 394.94 123.802 385.85 126.15C381.65 127.235 377.529 128.677 373.408 129.71C381.39 144.981 392.301 160.465 406.11 170.989C420.673 182.086 439.808 187.933 458.055 184.746C460.589 184.303 463.124 183.934 465.678 183.579C462.27 179.553 459.08 175.66 455.333 171.896C452.582 169.132 449.611 166.997 446.693 164.532C437.575 156.833 429.042 151.458 418.233 146.419C417.715 146.17 417.201 145.915 416.692 145.653C416.083 145.339 414.953 144.763 414.761 144.151C417.223 144.443 423.22 147.149 425.555 148.164C442.539 155.538 458.132 166.567 470.487 180.33C473.426 183.548 476.242 186.901 479.118 190.167C480.717 191.981 483.798 198.221 486.14 198C486.372 197.634 486.574 197.485 486.507 197.073C485.863 193.201 482.755 188.224 480.772 184.803C479.764 183.064 477.699 180.583 477.075 179.092C476.102 176.505 476.511 173.304 475.878 170.667C469.749 145.161 445.83 127.255 420.319 124.1C417.809 123.789 415.44 123.356 412.875 123.342Z" fill="#F27C03"/>
<defs>
<linearGradient id="paint0_linear_2_12" x1="288.24" y1="329.116" x2="798.962" y2="329.116" gradientUnits="userSpaceOnUse">
<stop stop-color="#1262C1"/>
<stop offset="1" stop-color="#082E5B"/>
</linearGradient>
<linearGradient id="paint1_linear_2_12" x1="343.484" y1="316.098" x2="-227.257" y2="316.098" gradientUnits="userSpaceOnUse">
<stop offset="0.1" stop-color="#3F8A24"/>
<stop offset="1" stop-color="#102409"/>
</linearGradient>
<linearGradient id="paint2_linear_2_12" x1="477.676" y1="267.828" x2="302.16" y2="312.402" gradientUnits="userSpaceOnUse">
<stop stop-color="#115AB1"/>
<stop offset="1" stop-color="#3E8724"/>
</linearGradient>
</defs>
</svg>
