<svg width="2212" height="664" viewBox="0 0 2212 664" fill="none" xmlns="http://www.w3.org/2000/svg">
<path d="M284.792 399.95C268.965 397.931 262.045 379.81 274.617 370.795C292.486 357.977 312.777 339.918 333.024 331.458C353.82 322.768 376.592 330.069 394.925 341.03C403.656 346.252 425.221 329.49 433.451 325.521C454.461 312.672 473.38 302.421 496.211 293.187C542.467 274.479 607.95 272.487 629.836 327.24C646.277 370.227 633.851 423.215 615.05 464.008C603.589 488.842 588.619 511.914 570.595 532.526C567.68 535.813 563.874 539.489 560.745 542.662C526.102 577.61 484.179 604.566 437.935 621.631C391.348 638.752 334.833 644.633 285.737 635.538C282.01 634.849 270.554 633.262 267.633 631.921L267.43 631.364C267.43 631.36 282.273 629.107 284.337 628.696C300.145 625.695 315.732 621.642 330.996 616.567C365.8 604.899 398.731 588.292 428.766 567.258C467.307 540.698 506.105 502.723 525.248 459.483C531.587 445.169 538.819 420.68 528.944 406.762C525.44 401.907 520.125 398.656 514.191 397.74C494.157 394.552 471.381 415.879 456.853 427.862C434.471 446.327 439.764 450.959 417.297 429.588L381.553 395.739C358.168 373.492 350.99 359.705 320.522 382.155L320.195 382.401L319.683 382.657C307.315 388.993 299.682 400.679 284.792 399.95Z" fill="url(#paint0_linear_6_18)"/>
<path d="M305.331 42.8769C311.059 42.0623 327.833 42.7901 333.756 43.2058C366.512 45.5034 396.446 59.0165 419.535 82.3235C423.286 86.1056 427.625 91.3748 431.173 95.5533C429.834 95.3734 428.486 95.2122 427.139 95.07C415.324 93.8354 409.943 94.2876 398.75 94.8329C361.048 96.6915 331.785 113.08 309.755 143.285C284.67 177.678 273.461 234.178 240.319 260.858C235.424 264.735 230.2 268.358 224.117 270.042C217.632 268.481 208.545 264.481 201.168 262.375C176.238 255.253 150.114 253.253 124.384 256.499C124.313 244.098 124.451 231.499 125.935 219.093C130.582 180.267 143.693 144.393 167.538 113.233C194.024 78.6213 230.377 56.4488 272.896 47.332C285.184 44.6972 293.205 44.3861 305.331 42.8769ZM147.417 240.861C149.257 239.673 154.729 229.936 156.194 227.618C161.604 219.054 167.199 210.608 172.974 202.284C189.377 178.97 215.583 150.467 237.355 132.223C254.157 118.094 272.675 106.121 292.474 96.5856C296.318 94.705 300.267 92.8849 304.139 91.0735C306.918 89.7738 317.942 87.0965 318.455 84.7989C243.217 100.617 176.809 160.603 150.205 231.887C149.341 234.199 147.239 238.564 147.417 240.861Z" fill="#4D9822"/>
<path d="M230.046 402.434C228.665 399.814 224.52 394.024 222.657 391.562C211.158 376.351 194.402 361.956 174.805 359.432C164.572 358.107 154.229 360.874 146.04 367.127C135.807 375.083 129.371 389.348 128.243 402.295C124.326 447.269 151.002 488.109 183.076 518.257C224.103 556.818 282.625 579.955 339.239 581.132C341.446 581.176 347.2 580.802 348.925 581.007L348.945 581.733C346.714 584.437 328.946 591.949 324.855 593.668C302.431 603.089 279.213 608.751 254.992 611.03C246.127 611.862 236.335 612.705 227.438 611.51C215.469 609.905 202.02 605.709 190.908 600.953C127.44 573.788 73.931 519.048 47.5598 455.624C34.3564 423.868 26.7341 388.033 34.5692 354.196C36.0199 347.931 37.8869 341.476 40.2473 335.553C50.1344 310.737 70.6455 290.041 95.5529 279.917C141.443 261.266 196.1 272.453 237.897 296.448C247.516 301.971 255.166 306.156 264.244 312.774C269.211 316.395 276.911 321.994 281.997 325.019C285.356 327.016 295.033 329.304 299.362 331.099C299.402 334.671 271.504 353.517 267.303 357.021C259.229 363.755 255.238 369.157 252.876 379.667C249.039 381.063 237.555 392.203 234.514 396.029C232.598 398.433 231.586 400.364 230.046 402.434Z" fill="url(#paint1_linear_6_18)"/>
<path d="M252.876 379.667C252.792 389.909 254.261 396.56 261.685 404.442C265.119 408.089 271.611 412.031 276.529 413.193C277.904 413.908 282.486 414.827 284.04 414.963C297.343 416.106 306.547 410.316 316.967 403.123C320.162 400.917 323.931 398.77 326.893 396.373C333.031 392.504 340.865 385.186 348.302 386.754C350.126 387.139 352.892 387.945 354.242 389.136C358.903 393.251 363.566 397.802 368.086 402.06L395.643 427.943C406.2 437.914 417.411 447.602 427.286 458.207C429.057 462.004 429.484 465.624 428.461 469.564C425.972 479.153 412.611 484.17 405.154 477.38C393.59 466.848 382.489 455.089 370.913 444.495C369.404 443.113 368.229 441.791 367.01 440.156C365.585 441.248 364.03 442.381 362.696 443.564C366.431 449.676 373.493 455.389 378.679 460.355C384.874 465.914 391.267 472.873 397.598 478.153C409.35 487.952 397.3 502.294 385.337 499.422C377.987 497.655 368.436 486.563 362.613 481.433C357.141 476.614 351.036 470.897 345.969 465.723C344.731 466.823 343.3 467.863 342.609 469.303C342.93 474.206 369.278 493.954 371.962 501.386C373.445 505.494 372.286 509.447 369.422 512.617C366.728 515.567 362.972 517.337 358.973 517.542C349.639 517.986 342.227 508.66 335.501 502.309C333.791 500.715 332.111 499.088 330.462 497.428C330.913 500.73 331.291 502.829 330.278 506.084C328.236 512.639 324.199 518.044 317.277 518.887C312.537 519.47 306.687 517.249 302.918 514.329C299.84 511.95 297.111 508.084 296.666 504.229C296.177 500.033 298.183 496.171 300.903 492.932C302.032 491.587 304.165 489.762 304.436 488.278C303.927 487.501 304.265 487.769 303.33 487.56C302.118 488.047 300.006 489.876 299.13 490.828C293.889 496.527 287.882 499.044 280.358 495.83C272.344 492.408 263.891 483.969 267.992 474.463C269.357 471.191 276.278 465.32 276.581 462.568C275.664 461.59 276.21 461.868 274.897 461.689C272.112 462.59 269.883 465.335 267.618 467.24C255.722 477.237 235.964 464.532 242.908 449.783C244.729 445.917 252.075 440.827 251.98 438.287L251.516 437.675C249.502 437.712 248.145 440.413 246.325 441.182C227.915 448.94 216.983 426.301 227.092 412.35C231.417 406.381 231.908 409.144 230.046 402.434C231.586 400.364 232.598 398.433 234.514 396.029C237.555 392.203 249.039 381.063 252.876 379.667Z" fill="url(#paint2_linear_6_18)"/>
<path d="M451.336 156.913C437.552 156.529 424.872 157.592 411.459 161.057C405.261 162.658 399.18 164.785 393.1 166.31C404.878 188.843 420.978 211.691 441.354 227.219C462.842 243.594 491.077 252.221 518.001 247.519C521.741 246.865 525.48 246.321 529.249 245.797C524.222 239.856 519.514 234.112 513.985 228.558C509.926 224.48 505.542 221.329 501.235 217.691C487.783 206.332 475.191 198.401 459.242 190.965C458.477 190.598 457.718 190.221 456.968 189.835C456.07 189.371 454.402 188.521 454.119 187.618C457.752 188.049 466.6 192.042 470.045 193.539C495.107 204.421 518.115 220.694 536.346 241.002C540.682 245.75 544.837 250.699 549.081 255.517C551.44 258.194 555.986 267.402 559.442 267.075C559.785 266.536 560.083 266.316 559.983 265.708C559.034 259.995 554.448 252.65 551.521 247.602C550.034 245.036 546.987 241.375 546.067 239.176C544.631 235.359 545.235 230.636 544.3 226.745C535.256 189.108 499.962 162.688 462.319 158.032C458.617 157.574 455.12 156.933 451.336 156.913Z" fill="#F27C03"/>
<path d="M813.648 145.28C822.565 145.28 829.723 146.923 835.12 150.208C840.752 153.493 845.211 159.243 848.496 167.456L920.656 353.312C923.941 361.291 923.941 367.275 920.656 371.264C917.605 375.019 911.856 376.896 903.408 376.896C895.899 376.896 889.68 376.192 884.752 374.784C880.059 373.376 876.304 369.035 873.488 361.76L862.224 333.6H765.072L754.16 362.112C751.579 368.917 747.707 373.141 742.544 374.784C737.616 376.192 731.397 376.896 723.888 376.896C715.44 376.896 709.573 375.019 706.288 371.264C703.237 367.275 703.237 361.291 706.288 353.312L778.8 167.456C781.851 159.477 786.192 153.845 791.824 150.56C797.456 147.04 804.731 145.28 813.648 145.28ZM780.208 294.176H847.44L813.648 200.544L780.208 294.176Z" fill="#0B2F15"/>
<path d="M1180.03 270.592C1179.56 287.253 1176.51 302.389 1170.88 316C1165.48 329.611 1157.62 341.344 1147.29 351.2C1137.2 360.821 1124.88 368.331 1110.33 373.728C1096.02 378.891 1079.83 381.472 1061.76 381.472C1044.16 381.472 1027.85 378.421 1012.83 372.32C998.047 365.984 985.14 357.419 974.111 346.624C963.316 335.595 954.868 322.805 948.767 308.256C942.665 293.707 939.615 277.984 939.615 261.088C939.615 244.192 942.665 228.469 948.767 213.92C955.103 199.136 963.668 186.347 974.462 175.552C985.492 164.523 998.516 155.84 1013.53 149.504C1028.55 143.168 1044.86 140 1062.46 140C1080.06 140 1096.37 143.403 1111.39 150.208C1126.64 157.013 1139.9 166.4 1151.17 178.368C1156.56 183.765 1158.68 189.163 1157.5 194.56C1156.56 199.957 1152.69 204.651 1145.89 208.64C1141.19 211.691 1136.62 213.216 1132.16 213.216C1128.87 213.216 1125.59 212.395 1122.3 210.752C1119.02 208.875 1115.61 206.645 1112.09 204.064C1105.76 197.963 1098.25 193.152 1089.57 189.632C1081.12 186.112 1071.85 184.352 1061.76 184.352C1051.2 184.352 1041.34 186.347 1032.19 190.336C1023.04 194.091 1014.94 199.371 1007.9 206.176C1001.1 212.981 995.7 221.077 991.711 230.464C987.956 239.851 986.079 250.059 986.079 261.088C986.079 271.883 988.073 281.973 992.062 291.36C996.052 300.747 1001.45 308.843 1008.25 315.648C1015.06 322.219 1023.04 327.499 1032.19 331.488C1041.34 335.243 1051.2 337.12 1061.76 337.12C1072.32 337.12 1081.47 336.064 1089.21 333.952C1097.19 331.605 1103.88 328.437 1109.28 324.448C1114.68 320.224 1118.9 315.413 1121.95 310.016C1125.24 304.384 1127.47 298.283 1128.64 291.712H1082.53C1069.39 291.712 1062.81 285.141 1062.81 272C1062.81 258.859 1069.39 252.288 1082.53 252.288H1168.41C1174.05 252.288 1177.33 254.048 1178.27 257.568C1179.44 260.853 1180.03 265.195 1180.03 270.592Z" fill="#0B2F15"/>
<path d="M1221.69 166.752C1221.69 159.243 1224.04 153.845 1228.73 150.56C1233.42 147.04 1239.17 145.28 1245.98 145.28H1325.53C1338.91 145.28 1350.76 147.157 1361.08 150.912C1371.41 154.667 1380.09 159.829 1387.13 166.4C1394.17 172.736 1399.45 180.48 1402.97 189.632C1406.72 198.549 1408.6 208.288 1408.6 218.848C1408.6 233.867 1404.26 247.008 1395.58 258.272C1386.9 269.536 1375.4 277.867 1361.08 283.264L1403.32 356.48C1407.31 362.816 1407.55 367.861 1404.03 371.616C1400.51 375.136 1394.99 376.896 1387.48 376.896C1378.1 376.896 1371.17 375.723 1366.71 373.376C1362.26 371.029 1358.38 366.805 1355.1 360.704L1315.67 290.304H1268.15V353.664C1268.15 369.152 1260.41 376.896 1244.92 376.896C1229.43 376.896 1221.69 369.152 1221.69 353.664V166.752ZM1268.15 188.928V249.472H1325.53C1336.79 249.472 1345.59 247.125 1351.93 242.432C1358.5 237.504 1361.79 229.76 1361.79 219.2C1361.79 208.64 1358.5 201.013 1351.93 196.32C1345.59 191.392 1336.79 188.928 1325.53 188.928H1268.15Z" fill="#0B2F15"/>
<path d="M1476.58 376.896C1468.84 376.896 1462.85 375.019 1458.63 371.264C1454.4 367.275 1452.29 361.408 1452.29 353.664V168.512C1452.29 160.768 1454.4 155.019 1458.63 151.264C1462.85 147.275 1468.84 145.28 1476.58 145.28H1599.08C1613.39 145.28 1620.55 152.437 1620.55 166.752C1620.55 181.067 1613.39 188.224 1599.08 188.224H1498.76V238.56H1596.26C1610.1 238.56 1617.03 245.483 1617.03 259.328C1617.03 273.408 1610.1 280.448 1596.26 280.448H1498.76V333.952H1600.84C1615.15 333.952 1622.31 341.109 1622.31 355.424C1622.31 369.739 1615.15 376.896 1600.84 376.896H1476.58Z" fill="#0B2F15"/>
<path d="M1896.24 270.592C1895.77 287.253 1892.72 302.389 1887.09 316C1881.69 329.611 1873.83 341.344 1863.5 351.2C1853.41 360.821 1841.09 368.331 1826.54 373.728C1812.23 378.891 1796.04 381.472 1777.97 381.472C1760.37 381.472 1744.06 378.421 1729.04 372.32C1714.26 365.984 1701.35 357.419 1690.32 346.624C1679.53 335.595 1671.08 322.805 1664.98 308.256C1658.88 293.707 1655.82 277.984 1655.82 261.088C1655.82 244.192 1658.88 228.469 1664.98 213.92C1671.31 199.136 1679.88 186.347 1690.67 175.552C1701.7 164.523 1714.73 155.84 1729.74 149.504C1744.76 143.168 1761.07 140 1778.67 140C1796.27 140 1812.58 143.403 1827.6 150.208C1842.85 157.013 1856.11 166.4 1867.38 178.368C1872.77 183.765 1874.89 189.163 1873.71 194.56C1872.77 199.957 1868.9 204.651 1862.1 208.64C1857.4 211.691 1852.83 213.216 1848.37 213.216C1845.08 213.216 1841.8 212.395 1838.51 210.752C1835.23 208.875 1831.82 206.645 1828.3 204.064C1821.97 197.963 1814.46 193.152 1805.78 189.632C1797.33 186.112 1788.06 184.352 1777.97 184.352C1767.41 184.352 1757.55 186.347 1748.4 190.336C1739.25 194.091 1731.15 199.371 1724.11 206.176C1717.31 212.981 1711.91 221.077 1707.92 230.464C1704.17 239.851 1702.29 250.059 1702.29 261.088C1702.29 271.883 1704.28 281.973 1708.27 291.36C1712.26 300.747 1717.66 308.843 1724.46 315.648C1731.27 322.219 1739.25 327.499 1748.4 331.488C1757.55 335.243 1767.41 337.12 1777.97 337.12C1788.53 337.12 1797.68 336.064 1805.42 333.952C1813.4 331.605 1820.09 328.437 1825.49 324.448C1830.89 320.224 1835.11 315.413 1838.16 310.016C1841.45 304.384 1843.68 298.283 1844.85 291.712H1798.74C1785.6 291.712 1779.02 285.141 1779.02 272C1779.02 258.859 1785.6 252.288 1798.74 252.288H1884.62C1890.26 252.288 1893.54 254.048 1894.48 257.568C1895.65 260.853 1896.24 265.195 1896.24 270.592Z" fill="#0B2F15"/>
<path d="M1927.34 261.44C1927.34 244.779 1930.39 229.056 1936.49 214.272C1942.59 199.488 1951.04 186.699 1961.84 175.904C1972.87 164.875 1985.77 156.192 2000.56 149.856C2015.57 143.52 2031.88 140.352 2049.48 140.352C2067.08 140.352 2083.28 143.52 2098.06 149.856C2112.84 156.192 2125.63 164.875 2136.43 175.904C2147.46 186.699 2156.02 199.488 2162.12 214.272C2168.23 229.056 2171.28 244.779 2171.28 261.44C2171.28 277.867 2168.23 293.472 2162.12 308.256C2156.02 322.805 2147.46 335.595 2136.43 346.624C2125.63 357.419 2112.84 365.984 2098.06 372.32C2083.28 378.656 2067.08 381.824 2049.48 381.824C2031.88 381.824 2015.57 378.656 2000.56 372.32C1985.77 365.984 1972.87 357.419 1961.84 346.624C1951.04 335.595 1942.59 322.805 1936.49 308.256C1930.39 293.472 1927.34 277.867 1927.34 261.44ZM1973.8 261.088C1973.8 271.883 1975.68 281.973 1979.44 291.36C1983.43 300.512 1988.71 308.608 1995.28 315.648C2002.08 322.453 2010.06 327.851 2019.21 331.84C2028.6 335.595 2038.69 337.472 2049.48 337.472C2060.28 337.472 2070.25 335.595 2079.4 331.84C2088.56 327.851 2096.42 322.453 2102.99 315.648C2109.79 308.608 2115.07 300.512 2118.83 291.36C2122.82 281.973 2124.81 271.883 2124.81 261.088C2124.81 250.293 2122.82 240.32 2118.83 231.168C2115.07 221.781 2109.79 213.685 2102.99 206.88C2096.42 199.84 2088.56 194.443 2079.4 190.688C2070.25 186.699 2060.28 184.704 2049.48 184.704C2038.69 184.704 2028.6 186.699 2019.21 190.688C2010.06 194.443 2002.08 199.84 1995.28 206.88C1988.71 213.685 1983.43 221.781 1979.44 231.168C1975.68 240.32 1973.8 250.293 1973.8 261.088Z" fill="#0B2F15"/>
<path d="M759.842 478.264C759.733 482.091 759.022 485.589 757.71 488.76C756.453 491.931 754.621 494.637 752.216 496.878C749.865 499.119 747.023 500.869 743.688 502.126C740.353 503.383 736.581 504.012 732.372 504.012C728.381 504.012 724.637 503.274 721.138 501.798C717.694 500.322 714.687 498.327 712.118 495.812C709.603 493.243 707.608 490.263 706.132 486.874C704.711 483.485 704 479.849 704 475.968C704 472.032 704.711 468.369 706.132 464.98C707.608 461.536 709.631 458.557 712.2 456.042C714.769 453.473 717.776 451.45 721.22 449.974C724.719 448.498 728.491 447.76 732.536 447.76C736.745 447.76 740.654 448.607 744.262 450.302C747.87 451.942 750.959 454.238 753.528 457.19C754.567 458.283 754.977 459.377 754.758 460.47C754.539 461.563 753.801 462.493 752.544 463.258C751.56 463.859 750.631 464.16 749.756 464.16C749.045 464.16 748.362 463.996 747.706 463.668C747.105 463.34 746.449 462.875 745.738 462.274C744.043 460.525 742.048 459.158 739.752 458.174C737.511 457.19 735.051 456.698 732.372 456.698C729.748 456.698 727.261 457.19 724.91 458.174C722.614 459.158 720.591 460.525 718.842 462.274C717.147 463.969 715.781 465.991 714.742 468.342C713.758 470.638 713.266 473.153 713.266 475.886C713.266 478.565 713.758 481.079 714.742 483.43C715.781 485.781 717.147 487.831 718.842 489.58C720.591 491.275 722.614 492.614 724.91 493.598C727.261 494.582 729.748 495.074 732.372 495.074C737.401 495.074 741.392 493.981 744.344 491.794C747.296 489.607 749.073 486.601 749.674 482.774H736.636C733.903 482.774 732.536 481.407 732.536 478.674C732.536 475.995 733.903 474.656 736.636 474.656H757.546C758.639 474.656 759.295 475.011 759.514 475.722C759.733 476.378 759.842 477.225 759.842 478.264Z" fill="#4D9822"/>
<path d="M768.719 502.864C765.712 502.864 764.209 501.361 764.209 498.354V467.522C764.209 466.265 764.564 465.308 765.275 464.652C766.04 463.996 767.079 463.668 768.391 463.668C770.359 463.668 771.534 464.597 771.917 466.456L772.327 469.736C773.475 467.768 774.951 466.155 776.755 464.898C778.559 463.586 780.609 462.93 782.905 462.93C784.49 462.93 785.72 463.285 786.595 463.996C787.47 464.652 787.907 465.827 787.907 467.522C787.907 469.326 787.442 470.447 786.513 470.884C785.584 471.321 784.354 471.54 782.823 471.54C779.926 471.54 777.602 472.606 775.853 474.738C774.104 476.815 773.229 479.549 773.229 482.938V498.354C773.229 501.361 771.726 502.864 768.719 502.864Z" fill="#4D9822"/>
<path d="M785.944 483.348C785.944 480.56 786.463 477.936 787.502 475.476C788.595 472.961 790.071 470.775 791.93 468.916C793.843 467.057 796.084 465.609 798.654 464.57C801.278 463.477 804.093 462.93 807.1 462.93C810.106 462.93 812.894 463.477 815.464 464.57C818.033 465.609 820.247 467.057 822.106 468.916C824.019 470.775 825.495 472.961 826.534 475.476C827.627 477.936 828.174 480.56 828.174 483.348C828.174 486.136 827.627 488.787 826.534 491.302C825.495 493.762 824.019 495.921 822.106 497.78C820.247 499.584 818.033 501.033 815.464 502.126C812.894 503.165 810.106 503.684 807.1 503.684C804.093 503.684 801.278 503.165 798.654 502.126C796.084 501.033 793.843 499.584 791.93 497.78C790.071 495.921 788.595 493.762 787.502 491.302C786.463 488.787 785.944 486.136 785.944 483.348ZM794.964 483.266C794.964 484.961 795.264 486.573 795.866 488.104C796.467 489.58 797.287 490.865 798.326 491.958C799.419 493.051 800.704 493.926 802.18 494.582C803.656 495.238 805.268 495.566 807.018 495.566C808.767 495.566 810.38 495.238 811.856 494.582C813.332 493.926 814.589 493.051 815.628 491.958C816.721 490.865 817.568 489.58 818.17 488.104C818.771 486.573 819.072 484.961 819.072 483.266C819.072 481.571 818.771 479.986 818.17 478.51C817.568 476.979 816.721 475.667 815.628 474.574C814.589 473.481 813.332 472.606 811.856 471.95C810.38 471.294 808.767 470.966 807.018 470.966C805.268 470.966 803.656 471.294 802.18 471.95C800.704 472.606 799.419 473.481 798.326 474.574C797.287 475.667 796.467 476.979 795.866 478.51C795.264 479.986 794.964 481.571 794.964 483.266Z" fill="#4D9822"/>
<path d="M827.914 468.506C827.422 466.866 827.531 465.663 828.242 464.898C828.952 464.078 830.155 463.668 831.85 463.668C833.544 463.668 834.802 463.969 835.622 464.57C836.496 465.117 837.152 466.21 837.59 467.85L844.56 493.352L851.694 468.096C852.514 465.144 854.454 463.668 857.516 463.668C860.577 463.668 862.463 465.144 863.174 468.096L870.472 493.352L877.114 467.85C877.496 466.265 878.152 465.171 879.082 464.57C880.011 463.969 881.323 463.668 883.018 463.668C886.462 463.668 887.692 465.281 886.708 468.506L877.77 497.698C876.731 501.142 874.408 502.864 870.8 502.864C867.246 502.864 864.978 501.142 863.994 497.698L857.352 475.394L851.038 497.698C850.054 501.142 847.785 502.864 844.232 502.864C840.678 502.864 838.355 501.142 837.262 497.698L827.914 468.506Z" fill="#4D9822"/>
<path d="M932.392 457.682V498.19C932.392 501.306 930.834 502.864 927.718 502.864C924.657 502.864 923.126 501.306 923.126 498.19V457.682H910.662C907.765 457.682 906.316 456.206 906.316 453.254C906.316 450.357 907.765 448.908 910.662 448.908H944.774C947.672 448.908 949.12 450.357 949.12 453.254C949.12 456.206 947.672 457.682 944.774 457.682H932.392Z" fill="#4D9822"/>
<path d="M942.788 483.348C942.788 480.56 943.307 477.936 944.346 475.476C945.439 472.961 946.915 470.775 948.774 468.916C950.687 467.057 952.929 465.609 955.498 464.57C958.122 463.477 960.937 462.93 963.944 462.93C966.951 462.93 969.738 463.477 972.308 464.57C974.877 465.609 977.091 467.057 978.95 468.916C980.863 470.775 982.339 472.961 983.378 475.476C984.471 477.936 985.018 480.56 985.018 483.348C985.018 486.136 984.471 488.787 983.378 491.302C982.339 493.762 980.863 495.921 978.95 497.78C977.091 499.584 974.877 501.033 972.308 502.126C969.738 503.165 966.951 503.684 963.944 503.684C960.937 503.684 958.122 503.165 955.498 502.126C952.929 501.033 950.687 499.584 948.774 497.78C946.915 495.921 945.439 493.762 944.346 491.302C943.307 488.787 942.788 486.136 942.788 483.348ZM951.808 483.266C951.808 484.961 952.109 486.573 952.71 488.104C953.311 489.58 954.131 490.865 955.17 491.958C956.263 493.051 957.548 493.926 959.024 494.582C960.5 495.238 962.113 495.566 963.862 495.566C965.611 495.566 967.224 495.238 968.7 494.582C970.176 493.926 971.433 493.051 972.472 491.958C973.565 490.865 974.413 489.58 975.014 488.104C975.615 486.573 975.916 484.961 975.916 483.266C975.916 481.571 975.615 479.986 975.014 478.51C974.413 476.979 973.565 475.667 972.472 474.574C971.433 473.481 970.176 472.606 968.7 471.95C967.224 471.294 965.611 470.966 963.862 470.966C962.113 470.966 960.5 471.294 959.024 471.95C957.548 472.606 956.263 473.481 955.17 474.574C954.131 475.667 953.311 476.979 952.71 478.51C952.109 479.986 951.808 481.571 951.808 483.266Z" fill="#4D9822"/>
<path d="M1027.85 502.618C1027.85 505.679 1027.38 508.467 1026.45 510.982C1025.52 513.551 1024.16 515.738 1022.35 517.542C1020.55 519.401 1018.34 520.822 1015.71 521.806C1013.09 522.845 1010.08 523.364 1006.69 523.364C1003.41 523.364 1000.43 522.872 997.753 521.888C995.075 520.904 992.888 519.865 991.193 518.772C990.264 518.171 989.717 517.296 989.553 516.148C989.444 515 989.854 513.879 990.783 512.786C991.713 511.638 992.779 511.064 993.981 511.064C994.911 511.064 995.84 511.337 996.769 511.884C997.972 512.595 999.366 513.251 1000.95 513.852C1002.59 514.453 1004.34 514.754 1006.2 514.754C1008 514.754 1009.67 514.508 1011.2 514.016C1012.73 513.579 1014.07 512.868 1015.22 511.884C1016.37 510.9 1017.24 509.67 1017.84 508.194C1018.5 506.718 1018.83 504.969 1018.83 502.946V497.78C1017.24 499.365 1015.41 500.623 1013.33 501.552C1011.31 502.427 1009.01 502.864 1006.45 502.864C1003.66 502.864 1001.06 502.345 998.655 501.306C996.25 500.267 994.145 498.846 992.341 497.042C990.592 495.238 989.198 493.133 988.159 490.728C987.175 488.268 986.683 485.644 986.683 482.856C986.683 480.123 987.175 477.553 988.159 475.148C989.198 472.688 990.592 470.556 992.341 468.752C994.145 466.948 996.25 465.527 998.655 464.488C1001.06 463.449 1003.66 462.93 1006.45 462.93C1009.23 462.93 1011.72 463.449 1013.91 464.488C1016.09 465.527 1018.03 466.948 1019.73 468.752L1020.22 466.21C1020.77 464.515 1021.97 463.668 1023.83 463.668C1026.51 463.668 1027.85 464.98 1027.85 467.604V502.618ZM995.703 482.856C995.703 484.496 996.004 486.027 996.605 487.448C997.207 488.869 997.999 490.127 998.983 491.22C1000.02 492.259 1001.25 493.106 1002.67 493.762C1004.09 494.363 1005.63 494.664 1007.27 494.664C1008.91 494.664 1010.44 494.363 1011.86 493.762C1013.28 493.106 1014.48 492.259 1015.47 491.22C1016.5 490.127 1017.32 488.869 1017.93 487.448C1018.53 486.027 1018.83 484.496 1018.83 482.856C1018.83 481.216 1018.53 479.685 1017.93 478.264C1017.32 476.843 1016.5 475.613 1015.47 474.574C1014.48 473.481 1013.28 472.633 1011.86 472.032C1010.44 471.376 1008.91 471.048 1007.27 471.048C1005.63 471.048 1004.09 471.376 1002.67 472.032C1001.25 472.633 1000.02 473.481 998.983 474.574C997.999 475.613 997.207 476.843 996.605 478.264C996.004 479.685 995.703 481.216 995.703 482.856Z" fill="#4D9822"/>
<path d="M1059.75 494.09C1060.52 493.707 1061.28 493.516 1062.05 493.516C1063.14 493.516 1064.07 494.09 1064.84 495.238C1065.6 496.277 1065.96 497.288 1065.9 498.272C1065.85 499.256 1065.19 500.076 1063.94 500.732C1062.35 501.497 1060.55 502.181 1058.52 502.782C1056.5 503.383 1054.18 503.684 1051.55 503.684C1048.38 503.684 1045.54 503.165 1043.03 502.126C1040.57 501.033 1038.46 499.584 1036.71 497.78C1035.02 495.921 1033.71 493.762 1032.78 491.302C1031.85 488.787 1031.38 486.136 1031.38 483.348C1031.38 480.505 1031.87 477.854 1032.86 475.394C1033.84 472.879 1035.21 470.72 1036.96 468.916C1038.71 467.057 1040.81 465.609 1043.27 464.57C1045.79 463.477 1048.55 462.93 1051.55 462.93C1054.78 462.93 1057.62 463.477 1060.08 464.57C1062.54 465.609 1064.59 467.057 1066.23 468.916C1067.87 470.72 1069.1 472.852 1069.92 475.312C1070.8 477.772 1071.23 480.423 1071.23 483.266C1071.23 484.305 1070.99 485.152 1070.5 485.808C1070.06 486.409 1069.21 486.71 1067.95 486.71H1040.89C1041.55 489.553 1042.89 491.767 1044.91 493.352C1046.93 494.937 1049.37 495.73 1052.21 495.73C1053.8 495.73 1055.22 495.593 1056.47 495.32C1057.73 494.992 1058.82 494.582 1059.75 494.09ZM1061.89 480.396C1061.83 477.444 1060.93 475.121 1059.18 473.426C1057.43 471.677 1054.97 470.802 1051.8 470.802C1048.74 470.802 1046.25 471.677 1044.34 473.426C1042.48 475.121 1041.28 477.444 1040.73 480.396H1061.89Z" fill="#4D9822"/>
<path d="M1071.23 467.44C1071.23 466.401 1071.48 465.527 1071.97 464.816C1072.52 464.051 1073.39 463.668 1074.6 463.668H1078.53L1079.76 456.452C1080.25 454.156 1081.67 453.008 1084.03 453.008C1086.32 453.008 1087.47 454.183 1087.47 456.534V463.668H1095.42C1097.94 463.668 1099.2 464.898 1099.2 467.358C1099.2 469.927 1097.94 471.212 1095.42 471.212H1087.47V488.924C1087.47 491.384 1087.85 493.079 1088.62 494.008C1089.44 494.937 1090.72 495.402 1092.47 495.402C1093.4 495.402 1094.38 495.32 1095.42 495.156C1096.68 495.047 1097.61 495.238 1098.21 495.73C1098.87 496.222 1099.2 497.097 1099.2 498.354C1099.2 501.033 1097.94 502.618 1095.42 503.11C1093.56 503.493 1091.79 503.684 1090.09 503.684C1086.27 503.684 1083.37 502.727 1081.4 500.814C1079.49 498.846 1078.53 496.058 1078.53 492.45V471.212H1074.6C1073.39 471.212 1072.52 470.857 1071.97 470.146C1071.48 469.381 1071.23 468.479 1071.23 467.44Z" fill="#4D9822"/>
<path d="M1108.45 502.864C1105.44 502.864 1103.94 501.361 1103.94 498.354V448.334C1103.94 445.327 1105.44 443.824 1108.45 443.824C1111.45 443.824 1112.96 445.327 1112.96 448.334V469.408C1114.49 467.495 1116.35 465.937 1118.53 464.734C1120.77 463.531 1123.15 462.93 1125.67 462.93C1128.51 462.93 1130.91 463.395 1132.88 464.324C1134.9 465.253 1136.54 466.538 1137.8 468.178C1139.11 469.763 1140.07 471.649 1140.67 473.836C1141.27 476.023 1141.57 478.401 1141.57 480.97V498.354C1141.57 501.361 1140.1 502.864 1137.15 502.864C1134.08 502.864 1132.55 501.361 1132.55 498.354V482.036C1132.55 480.56 1132.42 479.166 1132.14 477.854C1131.87 476.542 1131.38 475.394 1130.67 474.41C1130.01 473.426 1129.11 472.661 1127.96 472.114C1126.87 471.567 1125.47 471.294 1123.78 471.294C1122.3 471.294 1120.91 471.622 1119.6 472.278C1118.29 472.879 1117.14 473.699 1116.15 474.738C1115.17 475.777 1114.38 477.007 1113.78 478.428C1113.23 479.795 1112.96 481.271 1112.96 482.856V498.354C1112.96 501.361 1111.45 502.864 1108.45 502.864Z" fill="#4D9822"/>
<path d="M1173.66 494.09C1174.43 493.707 1175.19 493.516 1175.96 493.516C1177.05 493.516 1177.98 494.09 1178.75 495.238C1179.51 496.277 1179.87 497.288 1179.81 498.272C1179.76 499.256 1179.1 500.076 1177.85 500.732C1176.26 501.497 1174.46 502.181 1172.43 502.782C1170.41 503.383 1168.09 503.684 1165.46 503.684C1162.29 503.684 1159.45 503.165 1156.94 502.126C1154.48 501.033 1152.37 499.584 1150.62 497.78C1148.93 495.921 1147.61 493.762 1146.69 491.302C1145.76 488.787 1145.29 486.136 1145.29 483.348C1145.29 480.505 1145.78 477.854 1146.77 475.394C1147.75 472.879 1149.12 470.72 1150.87 468.916C1152.62 467.057 1154.72 465.609 1157.18 464.57C1159.7 463.477 1162.46 462.93 1165.46 462.93C1168.69 462.93 1171.53 463.477 1173.99 464.57C1176.45 465.609 1178.5 467.057 1180.14 468.916C1181.78 470.72 1183.01 472.852 1183.83 475.312C1184.71 477.772 1185.14 480.423 1185.14 483.266C1185.14 484.305 1184.9 485.152 1184.41 485.808C1183.97 486.409 1183.12 486.71 1181.86 486.71H1154.8C1155.46 489.553 1156.8 491.767 1158.82 493.352C1160.84 494.937 1163.28 495.73 1166.12 495.73C1167.7 495.73 1169.13 495.593 1170.38 495.32C1171.64 494.992 1172.73 494.582 1173.66 494.09ZM1175.8 480.396C1175.74 477.444 1174.84 475.121 1173.09 473.426C1171.34 471.677 1168.88 470.802 1165.71 470.802C1162.65 470.802 1160.16 471.677 1158.25 473.426C1156.39 475.121 1155.19 477.444 1154.64 480.396H1175.8Z" fill="#4D9822"/>
<path d="M1193.67 502.864C1190.67 502.864 1189.16 501.361 1189.16 498.354V467.522C1189.16 466.265 1189.52 465.308 1190.23 464.652C1191 463.996 1192.03 463.668 1193.35 463.668C1195.31 463.668 1196.49 464.597 1196.87 466.456L1197.28 469.736C1198.43 467.768 1199.91 466.155 1201.71 464.898C1203.51 463.586 1205.56 462.93 1207.86 462.93C1209.45 462.93 1210.68 463.285 1211.55 463.996C1212.43 464.652 1212.86 465.827 1212.86 467.522C1212.86 469.326 1212.4 470.447 1211.47 470.884C1210.54 471.321 1209.31 471.54 1207.78 471.54C1204.88 471.54 1202.56 472.606 1200.81 474.738C1199.06 476.815 1198.18 479.549 1198.18 482.938V498.354C1198.18 501.361 1196.68 502.864 1193.67 502.864Z" fill="#4D9822"/>
<path d="M1214.36 497.288C1214.36 495.484 1214.96 493.953 1216.17 492.696C1217.42 491.439 1218.93 490.81 1220.68 490.81C1222.43 490.81 1223.93 491.439 1225.19 492.696C1226.44 493.953 1227.07 495.484 1227.07 497.288C1227.07 499.037 1226.44 500.541 1225.19 501.798C1223.93 503.055 1222.43 503.684 1220.68 503.684C1219.8 503.684 1218.98 503.52 1218.22 503.192C1217.45 502.864 1216.77 502.427 1216.17 501.88C1215.62 501.279 1215.18 500.595 1214.86 499.83C1214.53 499.01 1214.36 498.163 1214.36 497.288Z" fill="#4D9822"/>
<path d="M1256.76 502.864C1255.17 502.864 1253.91 502.481 1252.98 501.716C1252.11 500.951 1251.67 499.775 1251.67 498.19V453.5C1251.67 450.439 1253.23 448.908 1256.35 448.908H1271.02C1275.34 448.908 1279.25 449.591 1282.75 450.958C1286.25 452.325 1289.23 454.211 1291.69 456.616C1294.15 459.021 1296.03 461.864 1297.35 465.144C1298.66 468.424 1299.31 472.005 1299.31 475.886C1299.31 479.767 1298.66 483.348 1297.35 486.628C1296.03 489.908 1294.15 492.751 1291.69 495.156C1289.23 497.561 1286.25 499.447 1282.75 500.814C1279.25 502.181 1275.34 502.864 1271.02 502.864H1256.76ZM1260.94 457.682V494.09H1271.02C1274.08 494.09 1276.79 493.653 1279.14 492.778C1281.49 491.849 1283.46 490.564 1285.05 488.924C1286.63 487.284 1287.83 485.371 1288.65 483.184C1289.53 480.943 1289.97 478.51 1289.97 475.886C1289.97 473.262 1289.53 470.857 1288.65 468.67C1287.83 466.429 1286.63 464.488 1285.05 462.848C1283.46 461.208 1281.49 459.951 1279.14 459.076C1276.79 458.147 1274.08 457.682 1271.02 457.682H1260.94Z" fill="#F27C03"/>
<path d="M1329.56 494.09C1330.32 493.707 1331.09 493.516 1331.86 493.516C1332.95 493.516 1333.88 494.09 1334.64 495.238C1335.41 496.277 1335.76 497.288 1335.71 498.272C1335.65 499.256 1335 500.076 1333.74 500.732C1332.16 501.497 1330.35 502.181 1328.33 502.782C1326.31 503.383 1323.98 503.684 1321.36 503.684C1318.19 503.684 1315.35 503.165 1312.83 502.126C1310.37 501.033 1308.27 499.584 1306.52 497.78C1304.82 495.921 1303.51 493.762 1302.58 491.302C1301.65 488.787 1301.19 486.136 1301.19 483.348C1301.19 480.505 1301.68 477.854 1302.66 475.394C1303.65 472.879 1305.01 470.72 1306.76 468.916C1308.51 467.057 1310.62 465.609 1313.08 464.57C1315.59 463.477 1318.35 462.93 1321.36 462.93C1324.58 462.93 1327.43 463.477 1329.89 464.57C1332.35 465.609 1334.4 467.057 1336.04 468.916C1337.68 470.72 1338.91 472.852 1339.73 475.312C1340.6 477.772 1341.04 480.423 1341.04 483.266C1341.04 484.305 1340.79 485.152 1340.3 485.808C1339.86 486.409 1339.02 486.71 1337.76 486.71H1310.7C1311.36 489.553 1312.69 491.767 1314.72 493.352C1316.74 494.937 1319.17 495.73 1322.02 495.73C1323.6 495.73 1325.02 495.593 1326.28 495.32C1327.54 494.992 1328.63 494.582 1329.56 494.09ZM1331.69 480.396C1331.64 477.444 1330.73 475.121 1328.99 473.426C1327.24 471.677 1324.78 470.802 1321.61 470.802C1318.54 470.802 1316.06 471.677 1314.14 473.426C1312.28 475.121 1311.08 477.444 1310.54 480.396H1331.69Z" fill="#F27C03"/>
<path d="M1349.89 502.864C1346.88 502.864 1345.38 501.361 1345.38 498.354V448.252C1345.38 445.3 1346.88 443.824 1349.89 443.824C1352.9 443.824 1354.4 445.3 1354.4 448.252V498.354C1354.4 501.361 1352.9 502.864 1349.89 502.864Z" fill="#F27C03"/>
<path d="M1365.93 502.864C1362.92 502.864 1361.42 501.361 1361.42 498.354V468.178C1361.42 465.171 1362.92 463.668 1365.93 463.668C1368.93 463.668 1370.44 465.171 1370.44 468.178V498.354C1370.44 501.361 1368.93 502.864 1365.93 502.864ZM1360.02 452.68C1360.02 450.985 1360.6 449.564 1361.75 448.416C1362.89 447.268 1364.29 446.694 1365.93 446.694C1367.57 446.694 1368.96 447.268 1370.11 448.416C1371.31 449.564 1371.91 450.985 1371.91 452.68C1371.91 454.32 1371.31 455.741 1370.11 456.944C1368.96 458.147 1367.57 458.748 1365.93 458.748C1364.29 458.748 1362.89 458.147 1361.75 456.944C1360.6 455.741 1360.02 454.32 1360.02 452.68Z" fill="#F27C03"/>
<path d="M1374.73 468.342C1374.13 466.757 1374.16 465.581 1374.81 464.816C1375.52 464.051 1376.73 463.668 1378.42 463.668C1380.11 463.668 1381.37 463.887 1382.19 464.324C1383.01 464.707 1383.67 465.581 1384.16 466.948L1393.67 493.106L1403.18 466.948C1403.62 465.581 1404.3 464.707 1405.23 464.324C1406.16 463.887 1407.48 463.668 1409.17 463.668C1412.67 463.668 1413.82 465.253 1412.61 468.424L1401.13 497.698C1399.88 501.142 1397.39 502.864 1393.67 502.864C1389.95 502.864 1387.47 501.142 1386.21 497.698L1374.73 468.342Z" fill="#F27C03"/>
<path d="M1440.68 494.09C1441.44 493.707 1442.21 493.516 1442.98 493.516C1444.07 493.516 1445 494.09 1445.76 495.238C1446.53 496.277 1446.88 497.288 1446.83 498.272C1446.77 499.256 1446.12 500.076 1444.86 500.732C1443.28 501.497 1441.47 502.181 1439.45 502.782C1437.43 503.383 1435.1 503.684 1432.48 503.684C1429.31 503.684 1426.47 503.165 1423.95 502.126C1421.49 501.033 1419.39 499.584 1417.64 497.78C1415.94 495.921 1414.63 493.762 1413.7 491.302C1412.77 488.787 1412.31 486.136 1412.31 483.348C1412.31 480.505 1412.8 477.854 1413.78 475.394C1414.77 472.879 1416.13 470.72 1417.88 468.916C1419.63 467.057 1421.74 465.609 1424.2 464.57C1426.71 463.477 1429.47 462.93 1432.48 462.93C1435.7 462.93 1438.55 463.477 1441.01 464.57C1443.47 465.609 1445.52 467.057 1447.16 468.916C1448.8 470.72 1450.03 472.852 1450.85 475.312C1451.72 477.772 1452.16 480.423 1452.16 483.266C1452.16 484.305 1451.91 485.152 1451.42 485.808C1450.98 486.409 1450.14 486.71 1448.88 486.71H1421.82C1422.48 489.553 1423.81 491.767 1425.84 493.352C1427.86 494.937 1430.29 495.73 1433.14 495.73C1434.72 495.73 1436.14 495.593 1437.4 495.32C1438.66 494.992 1439.75 494.582 1440.68 494.09ZM1442.81 480.396C1442.76 477.444 1441.85 475.121 1440.1 473.426C1438.36 471.677 1435.9 470.802 1432.73 470.802C1429.66 470.802 1427.18 471.677 1425.26 473.426C1423.4 475.121 1422.2 477.444 1421.66 480.396H1442.81Z" fill="#F27C03"/>
<path d="M1460.69 502.864C1457.68 502.864 1456.18 501.361 1456.18 498.354V467.522C1456.18 466.265 1456.54 465.308 1457.25 464.652C1458.01 463.996 1459.05 463.668 1460.36 463.668C1462.33 463.668 1463.51 464.597 1463.89 466.456L1464.3 469.736C1465.45 467.768 1466.92 466.155 1468.73 464.898C1470.53 463.586 1472.58 462.93 1474.88 462.93C1476.46 462.93 1477.69 463.285 1478.57 463.996C1479.44 464.652 1479.88 465.827 1479.88 467.522C1479.88 469.326 1479.41 470.447 1478.48 470.884C1477.55 471.321 1476.32 471.54 1474.79 471.54C1471.9 471.54 1469.57 472.606 1467.82 474.738C1466.07 476.815 1465.2 479.549 1465.2 482.938V498.354C1465.2 501.361 1463.7 502.864 1460.69 502.864Z" fill="#F27C03"/>
<path d="M1507.42 502.864C1505.84 502.864 1504.61 502.481 1503.73 501.716C1502.86 500.896 1502.42 499.721 1502.42 498.19V453.5C1502.42 451.915 1502.86 450.767 1503.73 450.056C1504.61 449.291 1505.81 448.908 1507.34 448.908H1524.72C1530.85 448.908 1535.44 450.138 1538.5 452.598C1541.56 455.058 1543.09 458.475 1543.09 462.848C1543.09 465.472 1542.46 467.768 1541.2 469.736C1539.95 471.704 1538.12 473.235 1535.71 474.328C1538.83 475.421 1541.2 477.089 1542.84 479.33C1544.54 481.517 1545.39 484.168 1545.39 487.284C1545.39 491.931 1543.75 495.703 1540.47 498.6C1537.19 501.443 1532.46 502.864 1526.28 502.864H1507.42ZM1526.28 494.336C1529.4 494.336 1531.72 493.598 1533.25 492.122C1534.78 490.646 1535.55 488.842 1535.55 486.71C1535.55 484.633 1534.78 482.829 1533.25 481.298C1531.77 479.713 1529.45 478.92 1526.28 478.92H1511.68V494.336H1526.28ZM1511.68 470.802H1524.56C1527.51 470.802 1529.67 470.146 1531.04 468.834C1532.4 467.467 1533.09 465.8 1533.09 463.832C1533.09 461.919 1532.4 460.388 1531.04 459.24C1529.72 458.037 1527.62 457.436 1524.72 457.436H1511.68V470.802Z" fill="#F27C03"/>
<path d="M1554.35 502.864C1551.34 502.864 1549.84 501.361 1549.84 498.354V468.178C1549.84 465.171 1551.34 463.668 1554.35 463.668C1557.35 463.668 1558.86 465.171 1558.86 468.178V498.354C1558.86 501.361 1557.35 502.864 1554.35 502.864ZM1548.44 452.68C1548.44 450.985 1549.02 449.564 1550.17 448.416C1551.31 447.268 1552.71 446.694 1554.35 446.694C1555.99 446.694 1557.38 447.268 1558.53 448.416C1559.73 449.564 1560.33 450.985 1560.33 452.68C1560.33 454.32 1559.73 455.741 1558.53 456.944C1557.38 458.147 1555.99 458.748 1554.35 458.748C1552.71 458.748 1551.31 458.147 1550.17 456.944C1549.02 455.741 1548.44 454.32 1548.44 452.68Z" fill="#F27C03"/>
<path d="M1603.6 502.618C1603.6 505.679 1603.13 508.467 1602.21 510.982C1601.28 513.551 1599.91 515.738 1598.11 517.542C1596.3 519.401 1594.09 520.822 1591.46 521.806C1588.84 522.845 1585.83 523.364 1582.44 523.364C1579.16 523.364 1576.18 522.872 1573.51 521.888C1570.83 520.904 1568.64 519.865 1566.95 518.772C1566.02 518.171 1565.47 517.296 1565.31 516.148C1565.2 515 1565.61 513.879 1566.54 512.786C1567.46 511.638 1568.53 511.064 1569.73 511.064C1570.66 511.064 1571.59 511.337 1572.52 511.884C1573.72 512.595 1575.12 513.251 1576.7 513.852C1578.34 514.453 1580.09 514.754 1581.95 514.754C1583.76 514.754 1585.42 514.508 1586.95 514.016C1588.48 513.579 1589.82 512.868 1590.97 511.884C1592.12 510.9 1592.99 509.67 1593.6 508.194C1594.25 506.718 1594.58 504.969 1594.58 502.946V497.78C1592.99 499.365 1591.16 500.623 1589.09 501.552C1587.06 502.427 1584.77 502.864 1582.2 502.864C1579.41 502.864 1576.81 502.345 1574.41 501.306C1572 500.267 1569.9 498.846 1568.09 497.042C1566.34 495.238 1564.95 493.133 1563.91 490.728C1562.93 488.268 1562.44 485.644 1562.44 482.856C1562.44 480.123 1562.93 477.553 1563.91 475.148C1564.95 472.688 1566.34 470.556 1568.09 468.752C1569.9 466.948 1572 465.527 1574.41 464.488C1576.81 463.449 1579.41 462.93 1582.2 462.93C1584.99 462.93 1587.47 463.449 1589.66 464.488C1591.85 465.527 1593.79 466.948 1595.48 468.752L1595.97 466.21C1596.52 464.515 1597.72 463.668 1599.58 463.668C1602.26 463.668 1603.6 464.98 1603.6 467.604V502.618ZM1571.46 482.856C1571.46 484.496 1571.76 486.027 1572.36 487.448C1572.96 488.869 1573.75 490.127 1574.74 491.22C1575.77 492.259 1577 493.106 1578.43 493.762C1579.85 494.363 1581.38 494.664 1583.02 494.664C1584.66 494.664 1586.19 494.363 1587.61 493.762C1589.03 493.106 1590.23 492.259 1591.22 491.22C1592.26 490.127 1593.08 488.869 1593.68 487.448C1594.28 486.027 1594.58 484.496 1594.58 482.856C1594.58 481.216 1594.28 479.685 1593.68 478.264C1593.08 476.843 1592.26 475.613 1591.22 474.574C1590.23 473.481 1589.03 472.633 1587.61 472.032C1586.19 471.376 1584.66 471.048 1583.02 471.048C1581.38 471.048 1579.85 471.376 1578.43 472.032C1577 472.633 1575.77 473.481 1574.74 474.574C1573.75 475.613 1572.96 476.843 1572.36 478.264C1571.76 479.685 1571.46 481.216 1571.46 482.856Z" fill="#F27C03"/>
<path d="M1648.22 502.618C1648.22 505.679 1647.75 508.467 1646.82 510.982C1645.89 513.551 1644.53 515.738 1642.72 517.542C1640.92 519.401 1638.7 520.822 1636.08 521.806C1633.46 522.845 1630.45 523.364 1627.06 523.364C1623.78 523.364 1620.8 522.872 1618.12 521.888C1615.44 520.904 1613.26 519.865 1611.56 518.772C1610.63 518.171 1610.09 517.296 1609.92 516.148C1609.81 515 1610.22 513.879 1611.15 512.786C1612.08 511.638 1613.15 511.064 1614.35 511.064C1615.28 511.064 1616.21 511.337 1617.14 511.884C1618.34 512.595 1619.73 513.251 1621.32 513.852C1622.96 514.453 1624.71 514.754 1626.57 514.754C1628.37 514.754 1630.04 514.508 1631.57 514.016C1633.1 513.579 1634.44 512.868 1635.59 511.884C1636.74 510.9 1637.61 509.67 1638.21 508.194C1638.87 506.718 1639.2 504.969 1639.2 502.946V497.78C1637.61 499.365 1635.78 500.623 1633.7 501.552C1631.68 502.427 1629.38 502.864 1626.81 502.864C1624.03 502.864 1621.43 502.345 1619.02 501.306C1616.62 500.267 1614.51 498.846 1612.71 497.042C1610.96 495.238 1609.57 493.133 1608.53 490.728C1607.54 488.268 1607.05 485.644 1607.05 482.856C1607.05 480.123 1607.54 477.553 1608.53 475.148C1609.57 472.688 1610.96 470.556 1612.71 468.752C1614.51 466.948 1616.62 465.527 1619.02 464.488C1621.43 463.449 1624.03 462.93 1626.81 462.93C1629.6 462.93 1632.09 463.449 1634.28 464.488C1636.46 465.527 1638.4 466.948 1640.1 468.752L1640.59 466.21C1641.14 464.515 1642.34 463.668 1644.2 463.668C1646.88 463.668 1648.22 464.98 1648.22 467.604V502.618ZM1616.07 482.856C1616.07 484.496 1616.37 486.027 1616.97 487.448C1617.58 488.869 1618.37 490.127 1619.35 491.22C1620.39 492.259 1621.62 493.106 1623.04 493.762C1624.46 494.363 1625.99 494.664 1627.63 494.664C1629.27 494.664 1630.8 494.363 1632.23 493.762C1633.65 493.106 1634.85 492.259 1635.83 491.22C1636.87 490.127 1637.69 488.869 1638.29 487.448C1638.9 486.027 1639.2 484.496 1639.2 482.856C1639.2 481.216 1638.9 479.685 1638.29 478.264C1637.69 476.843 1636.87 475.613 1635.83 474.574C1634.85 473.481 1633.65 472.633 1632.23 472.032C1630.8 471.376 1629.27 471.048 1627.63 471.048C1625.99 471.048 1624.46 471.376 1623.04 472.032C1621.62 472.633 1620.39 473.481 1619.35 474.574C1618.37 475.613 1617.58 476.843 1616.97 478.264C1616.37 479.685 1616.07 481.216 1616.07 482.856Z" fill="#F27C03"/>
<path d="M1680.12 494.09C1680.89 493.707 1681.65 493.516 1682.42 493.516C1683.51 493.516 1684.44 494.09 1685.21 495.238C1685.97 496.277 1686.33 497.288 1686.27 498.272C1686.22 499.256 1685.56 500.076 1684.3 500.732C1682.72 501.497 1680.91 502.181 1678.89 502.782C1676.87 503.383 1674.55 503.684 1671.92 503.684C1668.75 503.684 1665.91 503.165 1663.39 502.126C1660.93 501.033 1658.83 499.584 1657.08 497.78C1655.39 495.921 1654.07 493.762 1653.14 491.302C1652.21 488.787 1651.75 486.136 1651.75 483.348C1651.75 480.505 1652.24 477.854 1653.23 475.394C1654.21 472.879 1655.58 470.72 1657.33 468.916C1659.08 467.057 1661.18 465.609 1663.64 464.57C1666.15 463.477 1668.92 462.93 1671.92 462.93C1675.15 462.93 1677.99 463.477 1680.45 464.57C1682.91 465.609 1684.96 467.057 1686.6 468.916C1688.24 470.72 1689.47 472.852 1690.29 475.312C1691.16 477.772 1691.6 480.423 1691.6 483.266C1691.6 484.305 1691.36 485.152 1690.86 485.808C1690.43 486.409 1689.58 486.71 1688.32 486.71H1661.26C1661.92 489.553 1663.26 491.767 1665.28 493.352C1667.3 494.937 1669.74 495.73 1672.58 495.73C1674.16 495.73 1675.58 495.593 1676.84 495.32C1678.1 494.992 1679.19 494.582 1680.12 494.09ZM1682.25 480.396C1682.2 477.444 1681.3 475.121 1679.55 473.426C1677.8 471.677 1675.34 470.802 1672.17 470.802C1669.11 470.802 1666.62 471.677 1664.71 473.426C1662.85 475.121 1661.64 477.444 1661.1 480.396H1682.25Z" fill="#F27C03"/>
<path d="M1700.13 502.864C1697.13 502.864 1695.62 501.361 1695.62 498.354V467.522C1695.62 466.265 1695.98 465.308 1696.69 464.652C1697.45 463.996 1698.49 463.668 1699.81 463.668C1701.77 463.668 1702.95 464.597 1703.33 466.456L1703.74 469.736C1704.89 467.768 1706.37 466.155 1708.17 464.898C1709.97 463.586 1712.02 462.93 1714.32 462.93C1715.9 462.93 1717.13 463.285 1718.01 463.996C1718.88 464.652 1719.32 465.827 1719.32 467.522C1719.32 469.326 1718.86 470.447 1717.93 470.884C1717 471.321 1715.77 471.54 1714.24 471.54C1711.34 471.54 1709.02 472.606 1707.27 474.738C1705.52 476.815 1704.64 479.549 1704.64 482.938V498.354C1704.64 501.361 1703.14 502.864 1700.13 502.864Z" fill="#F27C03"/>
<path d="M1720.82 497.288C1720.82 495.484 1721.42 493.953 1722.63 492.696C1723.88 491.439 1725.39 490.81 1727.14 490.81C1728.89 490.81 1730.39 491.439 1731.65 492.696C1732.9 493.953 1733.53 495.484 1733.53 497.288C1733.53 499.037 1732.9 500.541 1731.65 501.798C1730.39 503.055 1728.89 503.684 1727.14 503.684C1726.26 503.684 1725.44 503.52 1724.68 503.192C1723.91 502.864 1723.23 502.427 1722.63 501.88C1722.08 501.279 1721.64 500.595 1721.31 499.83C1720.99 499.01 1720.82 498.163 1720.82 497.288Z" fill="#F27C03"/>
<path d="M1790.93 451.614C1792.08 452.379 1792.65 453.309 1792.65 454.402C1792.65 455.441 1792.19 456.507 1791.26 457.6C1790.17 458.857 1789.02 459.486 1787.81 459.486C1786.99 459.486 1786.04 459.185 1784.94 458.584C1783.74 457.928 1782.38 457.381 1780.84 456.944C1779.31 456.452 1777.76 456.206 1776.17 456.206C1773.38 456.206 1771.22 456.807 1769.69 458.01C1768.16 459.158 1767.4 460.743 1767.4 462.766C1767.4 464.843 1768.22 466.456 1769.86 467.604C1771.5 468.697 1773.49 469.627 1775.84 470.392C1777.92 471.103 1780.13 471.841 1782.48 472.606C1784.89 473.317 1787.1 474.301 1789.13 475.558C1791.2 476.761 1792.9 478.319 1794.21 480.232C1795.58 482.091 1796.26 484.551 1796.26 487.612C1796.26 490.072 1795.77 492.313 1794.78 494.336C1793.86 496.304 1792.52 497.999 1790.77 499.42C1789.02 500.787 1786.91 501.853 1784.45 502.618C1781.99 503.383 1779.26 503.766 1776.25 503.766C1772.7 503.766 1769.42 503.274 1766.41 502.29C1763.46 501.306 1760.95 500.158 1758.87 498.846C1757.67 498.081 1757.04 497.179 1756.98 496.14C1756.93 495.047 1757.39 493.953 1758.38 492.86C1759.36 491.657 1760.45 491.056 1761.66 491.056C1762.48 491.056 1763.43 491.357 1764.53 491.958C1766 492.778 1767.72 493.516 1769.69 494.172C1771.72 494.828 1773.9 495.156 1776.25 495.156C1779.48 495.156 1781.99 494.527 1783.8 493.27C1785.66 492.013 1786.58 490.263 1786.58 488.022C1786.58 486.819 1786.28 485.808 1785.68 484.988C1785.14 484.113 1784.37 483.348 1783.39 482.692C1782.4 482.036 1781.25 481.462 1779.94 480.97C1778.69 480.478 1777.32 480.013 1775.84 479.576C1773.82 478.975 1771.74 478.291 1769.61 477.526C1767.48 476.761 1765.51 475.804 1763.71 474.656C1761.96 473.453 1760.51 471.95 1759.36 470.146C1758.27 468.342 1757.72 466.073 1757.72 463.34C1757.72 460.935 1758.16 458.775 1759.03 456.862C1759.91 454.894 1761.14 453.227 1762.72 451.86C1764.36 450.493 1766.3 449.455 1768.54 448.744C1770.84 447.979 1773.41 447.596 1776.25 447.596C1779.1 447.596 1781.77 447.979 1784.29 448.744C1786.8 449.455 1789.02 450.411 1790.93 451.614Z" fill="#1262C1"/>
<path d="M1795.99 467.44C1795.99 466.401 1796.24 465.527 1796.73 464.816C1797.28 464.051 1798.15 463.668 1799.36 463.668H1803.29L1804.52 456.452C1805.01 454.156 1806.44 453.008 1808.79 453.008C1811.08 453.008 1812.23 454.183 1812.23 456.534V463.668H1820.18C1822.7 463.668 1823.96 464.898 1823.96 467.358C1823.96 469.927 1822.7 471.212 1820.18 471.212H1812.23V488.924C1812.23 491.384 1812.61 493.079 1813.38 494.008C1814.2 494.937 1815.48 495.402 1817.23 495.402C1818.16 495.402 1819.15 495.32 1820.18 495.156C1821.44 495.047 1822.37 495.238 1822.97 495.73C1823.63 496.222 1823.96 497.097 1823.96 498.354C1823.96 501.033 1822.7 502.618 1820.18 503.11C1818.33 503.493 1816.55 503.684 1814.85 503.684C1811.03 503.684 1808.13 502.727 1806.16 500.814C1804.25 498.846 1803.29 496.058 1803.29 492.45V471.212H1799.36C1798.15 471.212 1797.28 470.857 1796.73 470.146C1796.24 469.381 1795.99 468.479 1795.99 467.44Z" fill="#1262C1"/>
<path d="M1862.11 502.864C1861.07 502.864 1860.25 502.7 1859.65 502.372C1859.1 502.044 1858.69 501.443 1858.42 500.568L1857.84 497.78C1856.15 499.584 1854.21 501.005 1852.02 502.044C1849.83 503.083 1847.35 503.602 1844.56 503.602C1841.72 503.602 1839.09 503.083 1836.69 502.044C1834.28 500.951 1832.18 499.502 1830.37 497.698C1828.62 495.839 1827.23 493.68 1826.19 491.22C1825.21 488.705 1824.71 486.054 1824.71 483.266C1824.71 480.478 1825.21 477.854 1826.19 475.394C1827.23 472.879 1828.62 470.693 1830.37 468.834C1832.18 466.975 1834.28 465.527 1836.69 464.488C1839.09 463.395 1841.72 462.848 1844.56 462.848C1847.35 462.848 1849.83 463.395 1852.02 464.488C1854.21 465.527 1856.15 466.948 1857.84 468.752L1858.42 465.964C1858.63 465.199 1858.96 464.625 1859.4 464.242C1859.89 463.859 1860.79 463.668 1862.11 463.668C1864.68 463.668 1865.96 464.953 1865.96 467.522V498.928C1865.96 501.552 1864.68 502.864 1862.11 502.864ZM1833.73 483.266C1833.73 484.961 1834.03 486.573 1834.64 488.104C1835.24 489.58 1836.06 490.865 1837.1 491.958C1838.19 493.051 1839.45 493.926 1840.87 494.582C1842.34 495.238 1843.9 495.566 1845.54 495.566C1847.35 495.566 1848.99 495.238 1850.46 494.582C1851.94 493.926 1853.17 493.051 1854.15 491.958C1855.19 490.865 1855.98 489.58 1856.53 488.104C1857.08 486.573 1857.35 484.961 1857.35 483.266C1857.35 481.517 1857.08 479.904 1856.53 478.428C1855.98 476.897 1855.19 475.585 1854.15 474.492C1853.17 473.399 1851.94 472.524 1850.46 471.868C1848.99 471.212 1847.35 470.884 1845.54 470.884C1843.9 470.884 1842.34 471.212 1840.87 471.868C1839.45 472.524 1838.19 473.426 1837.1 474.574C1836.06 475.667 1835.24 476.979 1834.64 478.51C1834.03 479.986 1833.73 481.571 1833.73 483.266Z" fill="#1262C1"/>
<path d="M1877.34 502.864C1874.34 502.864 1872.83 501.361 1872.83 498.354V467.522C1872.83 466.265 1873.19 465.308 1873.9 464.652C1874.66 463.996 1875.7 463.668 1877.02 463.668C1878.98 463.668 1880.16 464.597 1880.54 466.456L1880.95 469.736C1882.1 467.768 1883.58 466.155 1885.38 464.898C1887.18 463.586 1889.23 462.93 1891.53 462.93C1893.11 462.93 1894.34 463.285 1895.22 463.996C1896.09 464.652 1896.53 465.827 1896.53 467.522C1896.53 469.326 1896.07 470.447 1895.14 470.884C1894.21 471.321 1892.98 471.54 1891.45 471.54C1888.55 471.54 1886.23 472.606 1884.48 474.738C1882.73 476.815 1881.85 479.549 1881.85 482.938V498.354C1881.85 501.361 1880.35 502.864 1877.34 502.864Z" fill="#1262C1"/>
<path d="M1896.85 467.44C1896.85 466.401 1897.1 465.527 1897.59 464.816C1898.14 464.051 1899.01 463.668 1900.21 463.668H1904.15L1905.38 456.452C1905.87 454.156 1907.29 453.008 1909.64 453.008C1911.94 453.008 1913.09 454.183 1913.09 456.534V463.668H1921.04C1923.56 463.668 1924.81 464.898 1924.81 467.358C1924.81 469.927 1923.56 471.212 1921.04 471.212H1913.09V488.924C1913.09 491.384 1913.47 493.079 1914.24 494.008C1915.06 494.937 1916.34 495.402 1918.09 495.402C1919.02 495.402 1920 495.32 1921.04 495.156C1922.3 495.047 1923.23 495.238 1923.83 495.73C1924.49 496.222 1924.81 497.097 1924.81 498.354C1924.81 501.033 1923.56 502.618 1921.04 503.11C1919.18 503.493 1917.41 503.684 1915.71 503.684C1911.88 503.684 1908.99 502.727 1907.02 500.814C1905.11 498.846 1904.15 496.058 1904.15 492.45V471.212H1900.21C1899.01 471.212 1898.14 470.857 1897.59 470.146C1897.1 469.381 1896.85 468.479 1896.85 467.44Z" fill="#1262C1"/>
<path d="M1953.7 465.308C1955.07 465.964 1955.75 466.866 1955.75 468.014C1955.81 469.162 1955.4 470.255 1954.52 471.294C1953.76 472.278 1952.77 472.77 1951.57 472.77C1950.81 472.77 1949.88 472.497 1948.78 471.95C1948.07 471.567 1947.12 471.239 1945.91 470.966C1944.76 470.638 1943.64 470.474 1942.55 470.474C1940.58 470.474 1939.13 470.857 1938.2 471.622C1937.33 472.387 1936.89 473.317 1936.89 474.41C1936.89 475.339 1937.25 476.187 1937.96 476.952C1938.72 477.717 1940.25 478.401 1942.55 479.002C1943.97 479.385 1945.56 479.822 1947.31 480.314C1949.06 480.751 1950.7 481.38 1952.23 482.2C1953.76 483.02 1955.01 484.141 1956 485.562C1957.04 486.929 1957.56 488.76 1957.56 491.056C1957.56 492.915 1957.17 494.637 1956.41 496.222C1955.64 497.807 1954.52 499.147 1953.05 500.24C1951.63 501.333 1949.9 502.208 1947.88 502.864C1945.91 503.465 1943.7 503.766 1941.24 503.766C1938.67 503.766 1936.32 503.465 1934.19 502.864C1932.11 502.317 1930.31 501.607 1928.77 500.732C1927.57 500.076 1926.94 499.147 1926.89 497.944C1926.83 496.741 1927.27 495.621 1928.2 494.582C1928.97 493.598 1929.92 493.106 1931.07 493.106C1932.05 493.106 1933.09 493.407 1934.19 494.008C1935.06 494.555 1936.1 495.019 1937.3 495.402C1938.51 495.785 1939.84 495.976 1941.32 495.976C1943.23 495.976 1944.82 495.621 1946.08 494.91C1947.39 494.145 1948.04 493.079 1948.04 491.712C1948.04 490.619 1947.55 489.717 1946.57 489.006C1945.58 488.241 1943.92 487.557 1941.57 486.956C1939.54 486.409 1937.66 485.835 1935.91 485.234C1934.16 484.633 1932.63 483.895 1931.32 483.02C1930.06 482.091 1929.05 480.997 1928.28 479.74C1927.57 478.483 1927.22 476.925 1927.22 475.066C1927.22 473.098 1927.6 471.376 1928.36 469.9C1929.13 468.369 1930.2 467.085 1931.56 466.046C1932.98 465.007 1934.65 464.215 1936.56 463.668C1938.48 463.121 1940.56 462.848 1942.8 462.848C1945.09 462.848 1947.17 463.121 1949.03 463.668C1950.94 464.16 1952.5 464.707 1953.7 465.308Z" fill="#1262C1"/>
<path d="M1986.23 448.908C1989.29 448.908 1990.82 450.439 1990.82 453.5V470.72H2017.31V453.5C2017.31 450.439 2018.87 448.908 2021.98 448.908C2025.05 448.908 2026.58 450.439 2026.58 453.5V498.19C2026.58 501.306 2025.05 502.864 2021.98 502.864C2018.87 502.864 2017.31 501.306 2017.31 498.19V479.494H1990.82V498.19C1990.82 501.306 1989.29 502.864 1986.23 502.864C1983.12 502.864 1981.56 501.306 1981.56 498.19V453.5C1981.56 450.439 1983.12 448.908 1986.23 448.908Z" fill="#1262C1"/>
<path d="M2059.13 494.09C2059.89 493.707 2060.66 493.516 2061.42 493.516C2062.51 493.516 2063.44 494.09 2064.21 495.238C2064.97 496.277 2065.33 497.288 2065.28 498.272C2065.22 499.256 2064.56 500.076 2063.31 500.732C2061.72 501.497 2059.92 502.181 2057.9 502.782C2055.87 503.383 2053.55 503.684 2050.93 503.684C2047.75 503.684 2044.91 503.165 2042.4 502.126C2039.94 501.033 2037.83 499.584 2036.08 497.78C2034.39 495.921 2033.08 493.762 2032.15 491.302C2031.22 488.787 2030.75 486.136 2030.75 483.348C2030.75 480.505 2031.25 477.854 2032.23 475.394C2033.21 472.879 2034.58 470.72 2036.33 468.916C2038.08 467.057 2040.18 465.609 2042.64 464.57C2045.16 463.477 2047.92 462.93 2050.93 462.93C2054.15 462.93 2056.99 463.477 2059.45 464.57C2061.91 465.609 2063.96 467.057 2065.6 468.916C2067.24 470.72 2068.47 472.852 2069.29 475.312C2070.17 477.772 2070.61 480.423 2070.61 483.266C2070.61 484.305 2070.36 485.152 2069.87 485.808C2069.43 486.409 2068.58 486.71 2067.33 486.71H2040.27C2040.92 489.553 2042.26 491.767 2044.28 493.352C2046.31 494.937 2048.74 495.73 2051.58 495.73C2053.17 495.73 2054.59 495.593 2055.85 495.32C2057.1 494.992 2058.2 494.582 2059.13 494.09ZM2061.26 480.396C2061.2 477.444 2060.3 475.121 2058.55 473.426C2056.8 471.677 2054.34 470.802 2051.17 470.802C2048.11 470.802 2045.62 471.677 2043.71 473.426C2041.85 475.121 2040.65 477.444 2040.1 480.396H2061.26Z" fill="#1262C1"/>
<path d="M2079.14 502.864C2076.13 502.864 2074.63 501.361 2074.63 498.354V467.522C2074.63 466.265 2074.98 465.308 2075.69 464.652C2076.46 463.996 2077.5 463.668 2078.81 463.668C2080.78 463.668 2081.95 464.597 2082.33 466.456L2082.74 469.736C2083.89 467.768 2085.37 466.155 2087.17 464.898C2088.98 463.586 2091.03 462.93 2093.32 462.93C2094.91 462.93 2096.14 463.285 2097.01 463.996C2097.89 464.652 2098.32 465.827 2098.32 467.522C2098.32 469.326 2097.86 470.447 2096.93 470.884C2096 471.321 2094.77 471.54 2093.24 471.54C2090.34 471.54 2088.02 472.606 2086.27 474.738C2084.52 476.815 2083.65 479.549 2083.65 482.938V498.354C2083.65 501.361 2082.14 502.864 2079.14 502.864Z" fill="#1262C1"/>
<path d="M2124.82 494.09C2125.58 493.707 2126.35 493.516 2127.11 493.516C2128.2 493.516 2129.13 494.09 2129.9 495.238C2130.66 496.277 2131.02 497.288 2130.97 498.272C2130.91 499.256 2130.25 500.076 2129 500.732C2127.41 501.497 2125.61 502.181 2123.59 502.782C2121.56 503.383 2119.24 503.684 2116.62 503.684C2113.44 503.684 2110.6 503.165 2108.09 502.126C2105.63 501.033 2103.52 499.584 2101.77 497.78C2100.08 495.921 2098.77 493.762 2097.84 491.302C2096.91 488.787 2096.44 486.136 2096.44 483.348C2096.44 480.505 2096.94 477.854 2097.92 475.394C2098.9 472.879 2100.27 470.72 2102.02 468.916C2103.77 467.057 2105.87 465.609 2108.33 464.57C2110.85 463.477 2113.61 462.93 2116.62 462.93C2119.84 462.93 2122.68 463.477 2125.14 464.57C2127.6 465.609 2129.65 467.057 2131.29 468.916C2132.93 470.72 2134.16 472.852 2134.98 475.312C2135.86 477.772 2136.3 480.423 2136.3 483.266C2136.3 484.305 2136.05 485.152 2135.56 485.808C2135.12 486.409 2134.27 486.71 2133.02 486.71H2105.96C2106.61 489.553 2107.95 491.767 2109.97 493.352C2112 494.937 2114.43 495.73 2117.27 495.73C2118.86 495.73 2120.28 495.593 2121.54 495.32C2122.79 494.992 2123.89 494.582 2124.82 494.09ZM2126.95 480.396C2126.89 477.444 2125.99 475.121 2124.24 473.426C2122.49 471.677 2120.03 470.802 2116.86 470.802C2113.8 470.802 2111.31 471.677 2109.4 473.426C2107.54 475.121 2106.34 477.444 2105.79 480.396H2126.95Z" fill="#1262C1"/>
<path d="M2139 497.288C2139 495.484 2139.6 493.953 2140.8 492.696C2142.06 491.439 2143.56 490.81 2145.31 490.81C2147.06 490.81 2148.56 491.439 2149.82 492.696C2151.08 493.953 2151.71 495.484 2151.71 497.288C2151.71 499.037 2151.08 500.541 2149.82 501.798C2148.56 503.055 2147.06 503.684 2145.31 503.684C2144.44 503.684 2143.62 503.52 2142.85 503.192C2142.09 502.864 2141.4 502.427 2140.8 501.88C2140.25 501.279 2139.82 500.595 2139.49 499.83C2139.16 499.01 2139 498.163 2139 497.288Z" fill="#1262C1"/>
<defs>
<linearGradient id="paint0_linear_6_18" x1="267.43" y1="460.544" x2="1021.03" y2="460.544" gradientUnits="userSpaceOnUse">
<stop stop-color="#1262C1"/>
<stop offset="1" stop-color="#082E5B"/>
</linearGradient>
<linearGradient id="paint1_linear_6_18" x1="348.945" y1="441.336" x2="-493.215" y2="441.336" gradientUnits="userSpaceOnUse">
<stop offset="0.1" stop-color="#3F8A24"/>
<stop offset="1" stop-color="#102409"/>
</linearGradient>
<linearGradient id="paint2_linear_6_18" x1="546.954" y1="370.11" x2="287.97" y2="435.882" gradientUnits="userSpaceOnUse">
<stop stop-color="#115AB1"/>
<stop offset="1" stop-color="#3E8724"/>
</linearGradient>
</defs>
</svg>
