<svg width="450" height="450" viewBox="0 0 450 450" fill="none" xmlns="http://www.w3.org/2000/svg">
<path d="M193.007 271.05C182.28 269.682 177.591 257.401 186.111 251.292C198.221 242.605 211.972 230.366 225.694 224.633C239.788 218.743 255.22 223.691 267.645 231.12C273.562 234.659 288.177 223.299 293.755 220.609C307.993 211.902 320.815 204.954 336.288 198.696C367.636 186.018 412.014 184.667 426.846 221.774C437.989 250.907 429.568 286.818 416.826 314.464C409.058 331.294 398.914 346.93 386.698 360.899C384.723 363.127 382.143 365.618 380.023 367.768C356.545 391.453 328.133 409.721 296.793 421.286C265.221 432.889 226.92 436.875 193.647 430.711C191.121 430.244 183.358 429.169 181.378 428.26L181.24 427.882C181.24 427.88 191.299 426.353 192.699 426.074C203.411 424.041 213.975 421.294 224.319 417.854C247.907 409.947 270.225 398.692 290.579 384.437C316.699 366.437 342.993 340.701 355.966 311.397C360.262 301.696 365.164 285.099 358.471 275.667C356.096 272.377 352.494 270.174 348.473 269.553C334.896 267.392 319.46 281.846 309.614 289.967C294.446 302.481 298.033 305.62 282.807 291.137L258.583 268.197C242.735 253.12 237.87 243.776 217.221 258.991L217 259.157L216.653 259.331C208.27 263.625 203.097 271.545 193.007 271.05Z" fill="url(#paint0_linear_8_37)"/>
<path d="M206.926 29.0581C210.808 28.5061 222.176 28.9993 226.19 29.281C248.389 30.8382 268.675 39.9961 284.323 55.7916C286.865 58.3547 289.806 61.9257 292.211 64.7575C291.303 64.6356 290.39 64.5263 289.477 64.43C281.47 63.5933 277.823 63.8997 270.237 64.2693C244.686 65.5289 224.854 76.6356 209.924 97.1059C192.924 120.414 185.327 158.705 162.866 176.786C159.549 179.414 156.009 181.869 151.886 183.01C147.492 181.952 141.333 179.242 136.333 177.815C119.438 172.987 101.734 171.633 84.2962 173.832C84.2478 165.428 84.3414 156.89 85.3474 148.482C88.4964 122.169 97.3821 97.8566 113.542 76.7392C131.492 53.2825 156.129 38.256 184.944 32.0774C193.272 30.2918 198.708 30.081 206.926 29.0581ZM99.906 163.234C101.153 162.429 104.861 155.83 105.854 154.259C109.521 148.456 113.312 142.731 117.226 137.09C128.343 121.29 146.103 101.973 160.858 89.6091C172.245 80.0334 184.795 71.9193 198.213 65.4571C200.818 64.1826 203.494 62.9491 206.118 61.7215C208.002 60.8406 215.473 59.0262 215.82 57.4691C164.831 68.1892 119.825 108.842 101.795 157.152C101.21 158.719 99.7855 161.677 99.906 163.234Z" fill="#4D9822"/>
<path d="M155.905 272.734C154.969 270.959 152.159 267.035 150.897 265.366C143.104 255.057 131.748 245.302 118.467 243.591C111.532 242.694 104.522 244.568 98.9728 248.806C92.0377 254.198 87.6757 263.866 86.9116 272.64C84.2573 303.119 102.335 330.797 124.072 351.228C151.877 377.362 191.538 393.042 229.906 393.839C231.401 393.869 235.301 393.616 236.47 393.755L236.483 394.247C234.972 396.079 222.93 401.17 220.158 402.335C204.961 408.72 189.225 412.557 172.811 414.102C166.803 414.666 160.167 415.237 154.137 414.427C146.026 413.339 136.911 410.496 129.38 407.272C86.3671 388.863 50.1037 351.765 32.2316 308.781C23.2836 287.26 18.1179 262.974 23.4278 240.042C24.4109 235.797 25.6762 231.422 27.2759 227.408C33.9765 210.59 47.8771 196.564 64.7571 189.703C95.8575 177.063 132.899 184.644 161.225 200.906C167.744 204.649 172.929 207.486 179.081 211.971C182.447 214.425 187.665 218.219 191.113 220.269C193.389 221.623 199.947 223.173 202.88 224.39C202.908 226.81 184.001 239.583 181.154 241.957C175.682 246.521 172.978 250.182 171.377 257.305C168.776 258.251 160.994 265.8 158.932 268.393C157.634 270.022 156.948 271.331 155.905 272.734Z" fill="url(#paint1_linear_8_37)"/>
<path d="M171.377 257.305C171.32 264.246 172.315 268.753 177.347 274.095C179.674 276.566 184.073 279.238 187.407 280.026C188.338 280.51 191.444 281.133 192.497 281.225C201.512 282 207.75 278.076 214.812 273.201C216.977 271.706 219.532 270.251 221.539 268.627C225.698 266.004 231.007 261.045 236.048 262.108C237.284 262.368 239.159 262.915 240.074 263.722C243.232 266.511 246.392 269.595 249.456 272.481L268.132 290.021C275.286 296.779 282.884 303.345 289.576 310.532C290.776 313.105 291.066 315.559 290.372 318.228C288.686 324.728 279.631 328.127 274.577 323.526C266.74 316.388 259.216 308.419 251.371 301.239C250.349 300.303 249.553 299.406 248.727 298.299C247.761 299.039 246.707 299.806 245.803 300.608C248.334 304.751 253.12 308.623 256.635 311.988C260.833 315.755 265.166 320.471 269.456 324.05C277.421 330.69 269.254 340.411 261.147 338.464C256.166 337.267 249.693 329.749 245.746 326.272C242.038 323.007 237.901 319.132 234.467 315.626C233.628 316.371 232.658 317.076 232.19 318.052C232.407 321.375 250.264 334.758 252.082 339.795C253.088 342.579 252.302 345.258 250.361 347.406C248.535 349.406 245.99 350.605 243.28 350.744C236.954 351.045 231.931 344.724 227.372 340.421C226.213 339.34 225.075 338.238 223.958 337.113C224.263 339.35 224.519 340.773 223.833 342.978C222.449 347.421 219.713 351.084 215.022 351.656C211.81 352.05 207.845 350.546 205.291 348.566C203.204 346.954 201.355 344.334 201.053 341.722C200.723 338.878 202.082 336.261 203.925 334.065C204.69 333.154 206.136 331.917 206.32 330.911C205.975 330.385 206.204 330.566 205.57 330.425C204.749 330.755 203.317 331.994 202.724 332.64C199.171 336.502 195.101 338.208 190.001 336.03C184.57 333.71 178.841 327.991 181.621 321.549C182.546 319.331 187.236 315.353 187.442 313.488C186.82 312.824 187.19 313.013 186.301 312.892C184.413 313.502 182.903 315.363 181.367 316.654C173.305 323.429 159.915 314.819 164.621 304.823C165.855 302.203 170.834 298.753 170.769 297.032L170.455 296.618C169.09 296.642 168.17 298.473 166.937 298.994C154.461 304.252 147.052 288.909 153.902 279.454C156.834 275.409 157.166 277.281 155.905 272.734C156.948 271.331 157.634 270.022 158.932 268.393C160.994 265.8 168.776 258.251 171.377 257.305Z" fill="url(#paint2_linear_8_37)"/>
<path d="M305.875 106.342C296.534 106.081 287.94 106.802 278.85 109.15C274.65 110.235 270.529 111.677 266.408 112.71C274.39 127.981 285.301 143.465 299.11 153.989C313.673 165.086 332.808 170.933 351.055 167.746C353.589 167.303 356.124 166.934 358.678 166.579C355.27 162.553 352.08 158.66 348.333 154.896C345.582 152.132 342.611 149.997 339.693 147.532C330.575 139.833 322.042 134.458 311.233 129.419C310.715 129.17 310.201 128.915 309.692 128.653C309.083 128.339 307.953 127.763 307.761 127.151C310.223 127.443 316.22 130.149 318.555 131.164C335.539 138.538 351.132 149.567 363.487 163.33C366.426 166.548 369.242 169.901 372.118 173.167C373.717 174.981 376.798 181.221 379.14 181C379.372 180.634 379.574 180.485 379.507 180.073C378.863 176.201 375.755 171.224 373.772 167.803C372.764 166.064 370.699 163.583 370.075 162.092C369.102 159.505 369.511 156.304 368.878 153.667C362.749 128.161 338.83 110.255 313.319 107.1C310.809 106.789 308.44 106.356 305.875 106.342Z" fill="#F27C03"/>
<defs>
<linearGradient id="paint0_linear_8_37" x1="181.24" y1="312.116" x2="691.962" y2="312.116" gradientUnits="userSpaceOnUse">
<stop stop-color="#1262C1"/>
<stop offset="1" stop-color="#082E5B"/>
</linearGradient>
<linearGradient id="paint1_linear_8_37" x1="236.483" y1="299.098" x2="-334.257" y2="299.098" gradientUnits="userSpaceOnUse">
<stop offset="0.1" stop-color="#3F8A24"/>
<stop offset="1" stop-color="#102409"/>
</linearGradient>
<linearGradient id="paint2_linear_8_37" x1="370.676" y1="250.828" x2="195.16" y2="295.402" gradientUnits="userSpaceOnUse">
<stop stop-color="#115AB1"/>
<stop offset="1" stop-color="#3E8724"/>
</linearGradient>
</defs>
</svg>
